<?xml version="1.0" encoding="utf-8"?>
<!-- Generator: Adobe Illustrator 18.1.0, SVG Export Plug-In . SVG Version: 6.00 Build 0)  -->
<svg version="1.1" id="Layer_1" xmlns="http://www.w3.org/2000/svg" xmlns:xlink="http://www.w3.org/1999/xlink" x="0px" y="0px"
	 viewBox="0 0 86.6 71.3" enable-background="new 0 0 86.6 71.3" xml:space="preserve">
<g>
	<polygon points="-49.9,6.6 -92.9,35.7 -49.9,64.7 -49.9,69.6 -100,35.7 -49.9,1.7 	"/>
</g>
<g>
	<polygon points="-49.9,12.5 -84.2,35.7 -49.9,58.9 -49.9,62.5 -89.5,35.7 -49.9,8.8 	"/>
</g>
<g>
	<polygon points="-49.9,17.7 -76.5,35.7 -49.9,53.7 -49.9,56.1 -80.1,35.7 -49.9,15.3 	"/>
</g>
<g>
	<polygon points="-13.4,20.4 -13.4,50.9 -49.9,50.9 -72.5,35.7 -49.9,20.4 	"/>
</g>
<g>
	<polygon points="36.5,64.7 79.4,35.7 36.5,6.6 36.5,1.7 86.6,35.7 36.5,69.6 	"/>
</g>
<g>
	<polygon points="36.5,58.9 70.8,35.7 36.5,12.5 36.5,8.8 76.1,35.7 36.5,62.5 	"/>
</g>
<g>
	<polygon points="36.5,53.7 63.1,35.7 36.5,17.7 36.5,15.3 66.6,35.7 36.5,56.1 	"/>
</g>
<g>
	<polygon points="0,50.9 0,20.4 36.5,20.4 59,35.7 36.5,50.9 	"/>
</g>
</svg>
