<?xml version="1.0" encoding="utf-8"?>
<!-- Generator: Adobe Illustrator 18.1.0, SVG Export Plug-In . SVG Version: 6.00 Build 0)  -->
<svg version="1.1" id="Layer_1" xmlns="http://www.w3.org/2000/svg" xmlns:xlink="http://www.w3.org/1999/xlink" x="0px" y="0px"
	 viewBox="0 0 86.6 71.3" enable-background="new 0 0 86.6 71.3" xml:space="preserve">
<g>
	<path fill="#A49841" d="M74.4,20.4C62.8,14.6,51.5,9,38.3,2.4c3.4-0.9,5-1.4,7.1-1.9c13.7,4,26,13.4,40.1,21.8
		c-4.6,5.4-8.7,10.4-13,15.2C65.2,45.6,59.1,54.6,50,61.2c-2.9,2.1-4,6.8-6,10.5c-3.2-0.6-5.8-1-8.7-1.5c0.2-1.1,0-2.4,0.6-3
		c6.2-6.4,12.3-12.7,18.7-18.8c7.3-7,12.6-15.7,19-23.4C74.2,24.2,74,22.8,74.4,20.4z"/>
	<path fill="#A49841" d="M10,58.9c6-2.7,10.3-7.6,16.8-10.1c7.7-3,13.6-9.5,18.4-16.4c1.7-2.5,1.9-5.9,2.7-8.7
		c-2.8-4.7-8-5.8-11.4-8.8c-4.3-3.8-11.1-0.1-14-5.8c-4.9-0.9-9.9-1.7-15.5-2.7c0.2-2,0.5-3.9,0.7-6c4.7,1.4,8.8,3.5,13,3.8
		c9,0.6,16.2,5.4,23.6,9.4c4.1,2.2,6.8,6.8,9.7,9.8c-0.5,8.1-2.9,13.8-8.8,18.9c-6.8,6-13.4,12-22,15.3c-2.9,1.1-5.2,3.6-7.5,5.3
		c-2.2-0.6-3.8-1.1-5.4-1.5C10.1,60.6,10,59.7,10,58.9z"/>
</g>
</svg>
