<?xml version="1.0" encoding="utf-8"?>
<!-- Generator: Adobe Illustrator 18.1.0, SVG Export Plug-In . SVG Version: 6.00 Build 0)  -->
<svg version="1.1" id="Layer_1" xmlns="http://www.w3.org/2000/svg" xmlns:xlink="http://www.w3.org/1999/xlink" x="0px" y="0px"
	 viewBox="0 0 86.6 71.3" enable-background="new 0 0 86.6 71.3" xml:space="preserve">
<g>
	<path fill="#A49841" d="M59.9,65.3c0,1.8,0,3.2,0,5.7c-2.3-0.3-4.7,0-6.2-1.1c-6.4-4.5-12.8-8.8-19.5-12.8
		c-7.9-4.7-14.9-11.1-23-15.4C8.1,40,6.4,37.4,3.9,36c8-7.5,15.5-15.8,24.3-22.3C34.6,9,42,5.3,48.6,0.7c1-0.7,2.8-0.1,4.4-0.1
		c0,2.4,0,4.2,0,6.8c-14.5,6.3-26.7,16.3-38.3,28.4C28.6,47.3,44,56.1,59.9,65.3z"/>
	<path fill="#A49841" d="M76.1,6.6c-1.5,7.1-8.9,8-13.3,12c-4,3.6-9.5,5.5-14.9,8.4c4.1,7.2,11.1,9.6,16.9,13.6
		c5.9,4.1,11.5,8.6,17.9,13.4c-0.1,1.4-0.2,3.4-0.4,7c-14.3-11.1-27.9-20.7-42.4-29c0-2.6,0-4.8,0-7.3c0.3-0.3,0.6-1.1,1.1-1.4
		c9.1-5.3,18.9-9.5,27.2-16.2C70.9,4.9,73.1,3.9,76.1,6.6z"/>
</g>
</svg>
