<?xml version="1.0" encoding="utf-8"?>
<!-- Generator: Adobe Illustrator 18.1.0, SVG Export Plug-In . SVG Version: 6.00 Build 0)  -->
<svg version="1.1" id="Layer_1" xmlns="http://www.w3.org/2000/svg" xmlns:xlink="http://www.w3.org/1999/xlink" x="0px" y="0px"
	 viewBox="0 0 1224 792" enable-background="new 0 0 1224 792" xml:space="preserve">
<path fill="#FFFFFF" d="M357.8,232.1l-6.3,6.3c1.6,5.5,2.4,10.3,4,14.3c-9.5,0-19-2.4-25.3,6.3c-9.5-6.3-17.4-11.1-25.3-16.6
	c-21.4,4-41.2-11.1-63.4-3.2v6.3c12.7,4.8,28.5,2.4,37.2,17.4c-2.4,3.2-4,5.5-5.5,7.1c3.2,10.3,6.3,20.6,9.5,29.3h44.4
	c11.9-13.5,19.8,0.8,27.7,2.4c-4.8,14.3-8.7,26.9-13.5,41.2c-4,1.6-15,2.4-15.8,5.5c-1.6,11.9-11.9,11.9-18.2,12.7
	c-7.9,1.6-17.4-1.6-27.7-3.2c-7.1,2.4-15.8,6.3-23.8,8.7c-4-2.4-7.9-4.8-11.1-6.3c-3.2,3.2-5.5,6.3-7.9,7.9v13.5
	c20.6,2.4,40.4,4.8,57.8,7.1c5.5-5.5,7.9-8.7,11.9-11.9c6.3,0,13.5,0.8,20.6,0c5.5-0.8,11.9-3.2,17.4-5.5c0.8,1.6,0.8,3.2,1.6,4.8
	c-7.9,4-16.6,7.1-23.8,10.3c-4-1.6-6.3-3.2-7.9-4c-5.5,6.3-9.5,11.1-13.5,15.8c2.4,2.4,6.3,6.3,9.5,9.5c6.3,0.8,12.7,1.6,17.4,1.6
	v16.6c-5.5-2.4-8.7-4.8-10.3-5.5c-10.3,4-19.8,7.9-30.9,11.9c0.8,2.4,1.6,5.5,3.2,7.9c12.7-0.8,20.6-15,38-7.1
	c-12.7,4.8-21.4,11.1-30.9,11.1c-19,0.8-34.1,11.1-48.3,21.4c-1.6,1.6-2.4,4-4,7.1c5.5,5.5,11.1,10.3,18.2,15.8
	c4-5.5,7.1-9.5,9.5-14.3c9.5,11.1,20.6,4.8,30.1,6.3c1.6,5.5,3.2,10.3,5.5,16.6c20.6-13.5,21.4-36.4,32.5-53.1
	c7.1,4.8,13.5,8.7,19,12.7c0.8,11.1-0.8,17.4-11.1,19c-3.2,0.8-7.1,1.6-13.5,3.2c8.7,8.7,14.3,14.3,19.8,19.8
	c-7.1,7.1-14.3,14.3-20.6,20.6c2.4,2.4,4.8,4.8,7.9,7.9c6.3-4.8,12.7-9.5,19.8-14.3c0.8-0.8,2.4,0.8,3.2,0.8v11.9
	c-4,1.6-7.1,2.4-9.5,3.2v13.5c11.9,1.6,14.3-7.9,18.2-14.3h2.4V232.1C369.6,232.1,363.3,232.1,357.8,232.1z M308.7,476.8
	C308.7,476.8,308.7,476,308.7,476.8c0-2.4,1.6-4,2.4-5.5c0.8,0.8,0.8,0.8,1.6,1.6C311.8,474.4,310.2,476,308.7,476.8z M363.3,262.2
	c-1.6-1.6-2.4-3.2-4-4l0.8-0.8c1.6,0.8,3.2,2.4,4.8,3.2C364.9,261.4,364.1,262.2,363.3,262.2z M556.6,278.8
	c-10.3-3.2-23.8-5.5-39.6-5.5h-73.7v74.4h82.4c15,0,26.9-3.2,35.6-8.7c9.5-5.5,13.5-15.8,13.5-30.1
	C574.8,293.8,568.4,283.5,556.6,278.8z M560.5,409.5c-7.9-4-19-5.5-34.1-5.5h-83.2v90.3h81.6c14.3,0,26.1-1.6,34.1-6.3
	c15-7.1,22.2-21.4,22.2-42C581.9,428.5,574.8,416.6,560.5,409.5z M556.6,278.8c-10.3-3.2-23.8-5.5-39.6-5.5h-73.7v74.4h82.4
	c15,0,26.9-3.2,35.6-8.7c9.5-5.5,13.5-15.8,13.5-30.1C574.8,293.8,568.4,283.5,556.6,278.8z M560.5,409.5c-7.9-4-19-5.5-34.1-5.5
	h-83.2v90.3h81.6c14.3,0,26.1-1.6,34.1-6.3c15-7.1,22.2-21.4,22.2-42C581.9,428.5,574.8,416.6,560.5,409.5z M556.6,278.8
	c-10.3-3.2-23.8-5.5-39.6-5.5h-73.7v74.4h82.4c15,0,26.9-3.2,35.6-8.7c9.5-5.5,13.5-15.8,13.5-30.1
	C574.8,293.8,568.4,283.5,556.6,278.8z M560.5,409.5c-7.9-4-19-5.5-34.1-5.5h-83.2v90.3h81.6c14.3,0,26.1-1.6,34.1-6.3
	c15-7.1,22.2-21.4,22.2-42C581.9,428.5,574.8,416.6,560.5,409.5z M556.6,278.8c-10.3-3.2-23.8-5.5-39.6-5.5h-73.7v74.4h82.4
	c15,0,26.9-3.2,35.6-8.7c9.5-5.5,13.5-15.8,13.5-30.1C574.8,293.8,568.4,283.5,556.6,278.8z M560.5,409.5c-7.9-4-19-5.5-34.1-5.5
	h-83.2v90.3h81.6c14.3,0,26.1-1.6,34.1-6.3c15-7.1,22.2-21.4,22.2-42C581.9,428.5,574.8,416.6,560.5,409.5z M958.9,345.3
	c-7.9,6.3-12.7,16.6-24.6,9.5c1.6-3.2,3.2-6.3,4.8-9.5c-5.5-4-11.1-7.9-15-11.1c1.6-4,2.4-5.5,4-7.9c-9.5-0.8-16.6-1.6-23.8-2.4
	c-3.2-0.8-6.3-2.4-13.5-5.5c11.1-9.5,16.6-14.3,23-19.8v-7.9c-12.7-9.5-22.2-21.4-24.6-35.6c1.6-4.8,3.2-7.1,4.8-10.3
	c-4-2.4-7.9-4-13.5-6.3c15-2.4,28.5-3.2,41.2-7.1c11.9-4,22.2-12.7,35.6-19.8c-1.6-4-4-10.3-5.5-14.3c-11.9-2.4-23-7.1-30.1-4.8
	c-10.3,4-19.8,2.4-30.1,2.4c-9.5,0-19.8,2.4-30.9-3.2c7.9-13.5,20.6-20.6,24.6-34.8c-14.3,11.1-28.5,22.2-42,32.5
	c-13.5,3.2-15-7.9-21.4-11.9c2.4-4,3.2-6.3,4-8.7c-6.3,1.6-12.7,3.2-18.2,4.8c-1.6-1.6-4-3.2-4.8-4c-4,1.6-7.9,3.2-11.1,4.8
	c-7.1-14.3-7.1-15-17.4-15.8c-11.1-0.8-19-5.5-30.1-17.4c23,4.8,34.8-11.1,49.9-13.5c19.8-3.2,29.3-18.2,42.8-29.3V84.7h-13.5
	c-11.9,11.9-24.6,24.6-36.4,36.4c-4.8,0-8.7,0-12.7,0c-0.8,1.6-2.4,3.2-3.2,4.8c-0.8-0.8-0.8-0.8-1.6-1.6c1.6-1.6,2.4-2.4,4-4
	l0.8,0.8c0-4.8,0-8.7,0-13.5c-7.1-3.2-14.3-7.1-20.6-10.3c0-4.8-0.8-8.7-0.8-13.5c-11.1,6.3-10.3,23.8-26.1,23v23.8
	c-10.3,1.6-19,3.2-24.6-7.1c1.6-3.2,4-5.5,5.5-8.7c-5.5-4-11.1-6.3-14.3-10.3c-3.2-4-3.2-10.3-4-12.7c-4.8-3.2-7.1-4.8-11.1-6.3
	c7.9-11.1,15.8-21.4,21.4-30.1c3.2-15-2.4-29.3,4.8-42c-1.6-4.8-3.2-7.9-5.5-12.7h-23.8c-5.5,7.9-11.1,15.8-14.3,20.6
	C654,43.6,669,61.8,659.5,80c7.1,6.3,6.3,15,3.2,24.6c-4-1.6-7.1-3.2-9.5-4c-7.1,1.6-12.7,2.4-17.4,3.2c-3.2-8.7-6.3-15-8.7-21.4
	c-9.5,4.8-12.7,16.6-24.6,15.8V74.4c-1.6,0.8-3.2,2.4-4.8,4c-1.6-4.8-2.4-8.7-4.8-15.8c-13.5,13.5-24.6,22.2-40.4,26.1
	c-7.9-11.1-21.4-16.6-25.3-30.9c-4.8-15.8-11.9-31.7-19-46.7C503.5,0,503.5,0,487.7,1.6c-0.8,9.5,0.8,19.8-2.4,27.7
	c-5.5,11.1-5.5,23-2.4,32.5c4,12.7,7.1,28.5,24.6,34.1c6.3,1.6,11.9,7.9,19.8,12.7c-7.9,7.1-13.5,12.7-19,17.4
	c-12.7-7.9-12.7-26.1-31.7-27.7c0,7.9,0,14.3-0.8,19c6.3,5.5,9.5,9.5,13.5,14.3c-4.8,2.4-7.1,3.2-11.1,5.5
	c-0.8-7.1-1.6-11.9-2.4-19.8c-6.3-4-13.5-9.5-20.6-15.8c-1.6-1.6-4-2.4-7.1-3.2c-3.2,4-6.3,7.9-11.1,12.7c5.5,4,10.3,6.3,13.5,8.7
	c0,9.5-0.8,15.8,0,23c0.8,6.3,4,11.9,5.5,18.2h-14.3c-9.5-9.5-19.8-19.8-29.3-29.3l-1.6-0.8c-0.8,0-0.8,1.6-3.2,3.2
	c4,11.1,15.8,15.8,20.6,23.8c-2.4,12.7-4,23-5.5,34.1c-12.7,0-15,12.7-22.2,19.8h139.4c41.2,0.8,70.5,12.7,87.9,36.4
	c10.3,14.3,15.8,31.7,15.8,51.5c0,20.6-5.5,37.2-15.8,49.9c-5.5,7.1-14.3,13.5-26.1,19c17.4,6.3,30.1,16.6,38.8,30.1
	c8.7,13.5,13.5,30.1,13.5,49.9c0,19.8-4.8,38-15,53.9c-6.3,10.3-14.3,19.8-23.8,26.9c-11.1,7.9-23.8,14.3-38,17.4
	c-14.3,3.2-30.9,4.8-47.5,4.8H387.1l-0.8,0.8c3.2,8.7,6.3,15,7.9,19.8c11.9-2.4,23-4,35.6-6.3c5.5,4,13.5,10.3,21.4,15.8
	c-0.8,0.8-1.6,1.6-2.4,2.4c2.4,5.5,5.5,11.9,7.9,17.4h21.4c-2.4,10.3-4,18.2-6.3,29.3c11.1,2.4,23.8,5.5,36.4,8.7v36.4
	c-4,12.7-22.2,19.8-15,37.2c6.3,7.9,13.5,15,19.8,23c-2.4,4.8-4.8,10.3-7.9,15.8c-7.9,0.8-17.4-3.2-23.8,9.5c0,4,0.8,10.3,0.8,16.6
	c7.9,0,14.3,0,20.6,0c0-4.8,0-9.5,0-15c4.8,8.7,4.8,8.7,0,15c0,6.3-1.6,13.5,9.5,9.5v-16.6c9.5-8.7,18.2-15.8,26.9-23.8
	c0-3.2,0-6.3,0.8-10.3c4,0,6.3,0,9.5,0.8c-3.2,4.8-5.5,8.7-7.9,11.9c-0.8-0.8-1.6-1.6-2.4-2.4c0.8,4,1.6,7.1,3.2,15.8
	c6.3-7.9,11.1-11.9,12.7-16.6c1.6-10.3,9.5-18.2,17.4-25.3c0.8-0.8,0-2.4,0.8-4c-3.2-2.4-7.1-4.8-9.5-6.3c-4,2.4-5.5,4-9.5,7.1V689
	c-9.5-12.7-28.5-14.3-30.1-32.5c7.1-2.4,14.3-4.8,24.6-7.9c4,5.5,8.7,11.9,11.9,15.8c10.3,3.2,15-2.4,19.8-7.1
	c0.8-0.8,2.4-0.8,3.2-1.6c0.8,3.2,2.4,6.3,3.2,8.7h18.2c3.2-5.5,6.3-10.3,9.5-15c7.9,0.8,14.3,11.1,22.2,3.2
	c0.8-3.2,0.8-5.5,1.6-7.9c11.9,11.1,23.8,21.4,35.6,31.7c-3.2,4-7.1,8.7-9.5,11.9c2.4,7.1,4,12.7,6.3,19c13.5-6.3,15-7.1,43.6-4.8
	c3.2,4.8,6.3,10.3,10.3,15.8c6.3-2.4,11.1-4.8,14.3-5.5c13.5,4.8,25.3,8.7,38,12.7c0,8.7,8.7,11.9,15,19.8
	c0.8-10.3,1.6-16.6,1.6-23.8c4,3.2,6.3,4.8,10.3,8.7c4-5.5,6.3-10.3,9.5-15c3.2-5.5,6.3-11.1,10.3-19.8c-3.2-1.6-7.1-4-10.3-6.3
	c0-11.1,0-20.6,0-30.1c0-1.6,3.2-2.4,4.8-4c-1.6-9.5,4-13.5,11.9-15.8c2.4,2.4,4,4,6.3,5.5c0,0,0.8-0.8,3.2-2.4
	c-0.8-15.8-15-25.3-21.4-38c4-11.9,7.1-22.2,10.3-32.5c8.7,0,15,0,19.8-1.6c2.4-4,6.3-6.3,11.1-9.5c0,3.2,0,6.3,0.8,9.5
	c-4,0-7.1,0.8-10.3,0.8c-0.8-0.8-0.8-1.6-1.6-1.6c-0.8,4.8-2.4,8.7-4,11.9c3.2,8.7,9.5,11.9,18.2,10.3c4-4,7.9-7.9,14.3-13.5
	c10.3,7.9,24.6,7.9,26.9,23c9.5,2.4,18.2,4.8,28.5,7.1v-17.4c-10.3-10.3-22.2-22.2-34.1-34.1c2.4-0.8,4.8-1.6,8.7-3.2v-12.7
	c-6.3-4-11.9-7.9-17.4-11.9c-7.1,7.1-15,13.5-24.6,18.2c2.4,1.6,4,4,6.3,7.1c-3.2,0-6.3,0-10.3,0.8c0-2.4,0-4,0-5.5
	c-17.4,8.7-38,12.7-61.8,12.7c-33.3,0-62.6-10.3-87.9-30.9c-25.3-20.6-38-53.9-38-100.6c0-43.6,11.9-76.8,34.8-99.8
	c23-23,53.1-34.8,89.5-34.8c22.2,0,41.2,4,58.6,11.9c17.4,7.9,31.7,19.8,43.6,37.2c7.9,11.1,13.5,24.6,17.4,38.8
	c13.5-7.1,26.1-14.3,41.2-22.2c1.6,3.2,2.4,5.5,4,9.5c4,2.4,10.3,4.8,15.8,7.9c4-4,6.3-7.9,10.3-12.7
	C977.1,358,967.6,351.6,958.9,345.3z M521.7,79.2H517v-1.6h5.5v1.6H521.7z M865.4,268.5H718.1v-34.1h147.3V268.5z M443.3,494.2h81.6
	c14.3,0,26.1-1.6,34.1-6.3c15-7.1,22.2-21.4,22.2-42c0-17.4-7.1-30.1-21.4-36.4c-7.9-4-19-5.5-34.1-5.5h-82.4V494.2z M574.8,309.7
	c0-15.8-6.3-26.1-18.2-31.7c-10.3-3.2-23.8-5.5-39.6-5.5h-73.7v74.4h82.4c15,0,26.9-3.2,35.6-8.7C570,334.2,574.8,323.9,574.8,309.7
	z M560.5,409.5c-7.9-4-19-5.5-34.1-5.5h-83.2v90.3h81.6c14.3,0,26.1-1.6,34.1-6.3c15-7.1,22.2-21.4,22.2-42
	C581.9,428.5,574.8,416.6,560.5,409.5z M556.6,278.8c-10.3-3.2-23.8-5.5-39.6-5.5h-73.7v74.4h82.4c15,0,26.9-3.2,35.6-8.7
	c9.5-5.5,13.5-15.8,13.5-30.1C574.8,293.8,568.4,283.5,556.6,278.8z M560.5,409.5c-7.9-4-19-5.5-34.1-5.5h-83.2v90.3h81.6
	c14.3,0,26.1-1.6,34.1-6.3c15-7.1,22.2-21.4,22.2-42C581.9,428.5,574.8,416.6,560.5,409.5z M556.6,278.8
	c-10.3-3.2-23.8-5.5-39.6-5.5h-73.7v74.4h82.4c15,0,26.9-3.2,35.6-8.7c9.5-5.5,13.5-15.8,13.5-30.1
	C574.8,293.8,568.4,283.5,556.6,278.8z M938.3,471.2c-9.5-13.5-23.8-18.2-37.2-25.3H737.9c0.8,25.3,9.5,42.8,26.1,53.1
	c10.3,6.3,22.2,9.5,36.4,9.5c15,0,26.9-4,36.4-11.1c4.8-4,9.5-9.5,13.5-17.4h46.7c0-3.2,0-6.3,1.6-8.7c11.9,4,23.8,7.1,34.8,10.3
	c-1.6-3.2-3.2-6.3-5.5-10.3L938.3,471.2L938.3,471.2z M835.3,363.5c-10.3-8.7-23-13.5-38.8-13.5c-16.6,0-30.1,4.8-38.8,14.3
	c-9.5,9.5-15,22.2-17.4,38.8h112.5C851.2,385.7,845.6,372.2,835.3,363.5z M560.5,409.5c-7.9-4-19-5.5-34.1-5.5h-83.2v90.3h81.6
	c14.3,0,26.1-1.6,34.1-6.3c15-7.1,22.2-21.4,22.2-42C581.9,428.5,574.8,416.6,560.5,409.5z M556.6,278.8
	c-10.3-3.2-23.8-5.5-39.6-5.5h-73.7v74.4h82.4c15,0,26.9-3.2,35.6-8.7c9.5-5.5,13.5-15.8,13.5-30.1
	C574.8,293.8,568.4,283.5,556.6,278.8z"/>
<path id="behance-icon" fill="#FFFFFF" d="M399.7,214.6H376v17.4c0.8,0,1.6,0,2.4,0c6.3-0.8,11.9-4,19-6.3c-1.6-2.4-3.2-4-4.8-5.5
	C395,218.6,397.4,216.2,399.7,214.6z M375.2,529.8v23h10.3c5.5-4,11.1-7.9,16.6-11.9v-11.1H375.2z M918.5,396.8V396
	c0,4-1.6,7.1-5.5,11.1c4.8,9.5,4.8,9.5,4.8,22.2h-21.4c2.4-6.3,4.8-11.9,6.3-17.4c-9.5-4.8-15.8-1.6-21.4,5.5V434
	c5.5,5.5,12.7,9.5,19.8,13.5h19.8C920.9,424.5,920.1,407.9,918.5,396.8z M897.1,480c0,7.1,0,15-11.9,16.6c-1.6-0.8-4.8-2.4-9.5-5.5
	c-2.4,2.4-5.5,4.8-8.7,7.1c4.8,12.7,12.7,22.2,23,30.1c0.8-0.8,2.4-2.4,3.2-3.2c14.3-15,22.2-30.1,24.6-45.1L897.1,480L897.1,480z
	 M915.3,383.3c-0.8,0.8-1.6,0.8-2.4,1.6c2.4,3.2,4,5.5,4.8,7.9C916.9,389.7,916.1,386.5,915.3,383.3z M860.7,544.9c0,1.6,0,2.4,0,4
	c1.6-0.8,3.2-1.6,4.8-2.4C863.9,545.7,862.3,544.9,860.7,544.9z M859.9,542.5l0.8,0.8c0.8-0.8,1.6-1.6,2.4-2.4
	C861.5,542.5,860.7,542.5,859.9,542.5z M860.7,543.3C860.7,544.1,860.7,544.1,860.7,543.3l-0.8,0.8
	C860.7,544.1,860.7,544.1,860.7,543.3L860.7,543.3z M860.7,544.9C859.9,544.9,859.9,544.9,860.7,544.9
	C859.9,544.9,860.7,544.9,860.7,544.9L860.7,544.9z M857.5,539.4c-0.8,0.8-0.8,0.8-1.6,1.6c0.8,0.8,2.4,1.6,4,1.6
	C859.1,541.7,858.3,540.1,857.5,539.4z"/>
</svg>
