<?xml version="1.0" encoding="utf-8"?>
<!-- Generator: Adobe Illustrator 18.1.0, SVG Export Plug-In . SVG Version: 6.00 Build 0)  -->
<svg version="1.1" id="Layer_1" xmlns="http://www.w3.org/2000/svg" xmlns:xlink="http://www.w3.org/1999/xlink" x="0px" y="0px"
	 viewBox="0 0 100 100" enable-background="new 0 0 100 100" xml:space="preserve">
<path d="M17.9,29.3l-0.8,0.8c0.2,0.7,0.3,1.3,0.5,1.8c-1.2,0-2.4-0.3-3.2,0.8c-1.2-0.8-2.2-1.4-3.2-2.1c-2.7,0.5-5.2-1.4-8-0.4V31
	c1.6,0.6,3.6,0.3,4.7,2.2c-0.3,0.4-0.5,0.7-0.7,0.9c0.4,1.3,0.8,2.6,1.2,3.7H14c1.5-1.7,2.5,0.1,3.5,0.3c-0.6,1.8-1.1,3.4-1.7,5.2
	c-0.5,0.2-1.9,0.3-2,0.7c-0.2,1.5-1.5,1.5-2.3,1.6c-1,0.2-2.2-0.2-3.5-0.4c-0.9,0.3-2,0.8-3,1.1c-0.5-0.3-1-0.6-1.4-0.8
	c-0.4,0.4-0.7,0.8-1,1v1.7c2.6,0.3,5.1,0.6,7.3,0.9c0.7-0.7,1-1.1,1.5-1.5c0.8,0,1.7,0.1,2.6,0c0.7-0.1,1.5-0.4,2.2-0.7
	c0.1,0.2,0.1,0.4,0.2,0.6c-1,0.5-2.1,0.9-3,1.3c-0.5-0.2-0.8-0.4-1-0.5c-0.7,0.8-1.2,1.4-1.7,2c0.3,0.3,0.8,0.8,1.2,1.2
	c0.8,0.1,1.6,0.2,2.2,0.2v2.1c-0.7-0.3-1.1-0.6-1.3-0.7c-1.3,0.5-2.5,1-3.9,1.5c0.1,0.3,0.2,0.7,0.4,1c1.6-0.1,2.6-1.9,4.8-0.9
	c-1.6,0.6-2.7,1.4-3.9,1.4c-2.4,0.1-4.3,1.4-6.1,2.7c-0.2,0.2-0.3,0.5-0.5,0.9c0.7,0.7,1.4,1.3,2.3,2c0.5-0.7,0.9-1.2,1.2-1.8
	c1.2,1.4,2.6,0.6,3.8,0.8c0.2,0.7,0.4,1.3,0.7,2.1c2.6-1.7,2.7-4.6,4.1-6.7c0.9,0.6,1.7,1.1,2.4,1.6c0.1,1.4-0.1,2.2-1.4,2.4
	c-0.4,0.1-0.9,0.2-1.7,0.4c1.1,1.1,1.8,1.8,2.5,2.5c-0.9,0.9-1.8,1.8-2.6,2.6c0.3,0.3,0.6,0.6,1,1c0.8-0.6,1.6-1.2,2.5-1.8
	c0.1-0.1,0.3,0.1,0.4,0.1v1.5c-0.5,0.2-0.9,0.3-1.2,0.4v1.7c1.5,0.2,1.8-1,2.3-1.8h0.3V29.3C19.4,29.3,18.6,29.3,17.9,29.3z
	 M11.7,60.2C11.7,60.2,11.7,60.1,11.7,60.2c0-0.3,0.2-0.5,0.3-0.7c0.1,0.1,0.1,0.1,0.2,0.2C12.1,59.9,11.9,60.1,11.7,60.2z
	 M18.6,33.1c-0.2-0.2-0.3-0.4-0.5-0.5c0,0,0.1-0.1,0.1-0.1c0.2,0.1,0.4,0.3,0.6,0.4C18.8,33,18.7,33.1,18.6,33.1z M43,35.2
	c-1.3-0.4-3-0.7-5-0.7h-9.3v9.4h10.4c1.9,0,3.4-0.4,4.5-1.1c1.2-0.7,1.7-2,1.7-3.8C45.3,37.1,44.5,35.8,43,35.2z M43.5,51.7
	c-1-0.5-2.4-0.7-4.3-0.7H28.7v11.4H39c1.8,0,3.3-0.2,4.3-0.8c1.9-0.9,2.8-2.7,2.8-5.3C46.2,54.1,45.3,52.6,43.5,51.7z M43,35.2
	c-1.3-0.4-3-0.7-5-0.7h-9.3v9.4h10.4c1.9,0,3.4-0.4,4.5-1.1c1.2-0.7,1.7-2,1.7-3.8C45.3,37.1,44.5,35.8,43,35.2z M43.5,51.7
	c-1-0.5-2.4-0.7-4.3-0.7H28.7v11.4H39c1.8,0,3.3-0.2,4.3-0.8c1.9-0.9,2.8-2.7,2.8-5.3C46.2,54.1,45.3,52.6,43.5,51.7z M43,35.2
	c-1.3-0.4-3-0.7-5-0.7h-9.3v9.4h10.4c1.9,0,3.4-0.4,4.5-1.1c1.2-0.7,1.7-2,1.7-3.8C45.3,37.1,44.5,35.8,43,35.2z M43.5,51.7
	c-1-0.5-2.4-0.7-4.3-0.7H28.7v11.4H39c1.8,0,3.3-0.2,4.3-0.8c1.9-0.9,2.8-2.7,2.8-5.3C46.2,54.1,45.3,52.6,43.5,51.7z M43,35.2
	c-1.3-0.4-3-0.7-5-0.7h-9.3v9.4h10.4c1.9,0,3.4-0.4,4.5-1.1c1.2-0.7,1.7-2,1.7-3.8C45.3,37.1,44.5,35.8,43,35.2z M43.5,51.7
	c-1-0.5-2.4-0.7-4.3-0.7H28.7v11.4H39c1.8,0,3.3-0.2,4.3-0.8c1.9-0.9,2.8-2.7,2.8-5.3C46.2,54.1,45.3,52.6,43.5,51.7z M93.8,43.6
	c-1,0.8-1.6,2.1-3.1,1.2c0.2-0.4,0.4-0.8,0.6-1.2c-0.7-0.5-1.4-1-1.9-1.4c0.2-0.5,0.3-0.7,0.5-1c-1.2-0.1-2.1-0.2-3-0.3
	c-0.4-0.1-0.8-0.3-1.7-0.7c1.4-1.2,2.1-1.8,2.9-2.5v-1c-1.6-1.2-2.8-2.7-3.1-4.5c0.2-0.6,0.4-0.9,0.6-1.3c-0.5-0.3-1-0.5-1.7-0.8
	c1.9-0.3,3.6-0.4,5.2-0.9c1.5-0.5,2.8-1.6,4.5-2.5c-0.2-0.5-0.5-1.3-0.7-1.8c-1.5-0.3-2.9-0.9-3.8-0.6c-1.3,0.5-2.5,0.3-3.8,0.3
	c-1.2,0-2.5,0.3-3.9-0.4c1-1.7,2.6-2.6,3.1-4.4c-1.8,1.4-3.6,2.8-5.3,4.1c-1.7,0.4-1.9-1-2.7-1.5c0.3-0.5,0.4-0.8,0.5-1.1
	c-0.8,0.2-1.6,0.4-2.3,0.6c-0.2-0.2-0.5-0.4-0.6-0.5c-0.5,0.2-1,0.4-1.4,0.6c-0.9-1.8-0.9-1.9-2.2-2c-1.4-0.1-2.4-0.7-3.8-2.2
	c2.9,0.6,4.4-1.4,6.3-1.7c2.5-0.4,3.7-2.3,5.4-3.7v-1.7h-1.7c-1.5,1.5-3.1,3.1-4.6,4.6c-0.6,0-1.1,0-1.6,0c-0.1,0.2-0.3,0.4-0.4,0.6
	c-0.1-0.1-0.1-0.1-0.2-0.2c0.2-0.2,0.3-0.3,0.5-0.5c0,0,0.1,0.1,0.1,0.1c0-0.6,0-1.1,0-1.7c-0.9-0.4-1.8-0.9-2.6-1.3
	c0-0.6-0.1-1.1-0.1-1.7c-1.4,0.8-1.3,3-3.3,2.9v3c-1.3,0.2-2.4,0.4-3.1-0.9c0.2-0.4,0.5-0.7,0.7-1.1c-0.7-0.5-1.4-0.8-1.8-1.3
	c-0.4-0.5-0.4-1.3-0.5-1.6c-0.6-0.4-0.9-0.6-1.4-0.8c1-1.4,2-2.7,2.7-3.8c0.4-1.9-0.3-3.7,0.6-5.3c-0.2-0.6-0.4-1-0.7-1.6h-3
	c-0.7,1-1.4,2-1.8,2.6c-0.9,2.8,1,5.1-0.2,7.4c0.9,0.8,0.8,1.9,0.4,3.1c-0.5-0.2-0.9-0.4-1.2-0.5c-0.9,0.2-1.6,0.3-2.2,0.4
	c-0.4-1.1-0.8-1.9-1.1-2.7c-1.2,0.6-1.6,2.1-3.1,2v-3c-0.2,0.1-0.4,0.3-0.6,0.5c-0.2-0.6-0.3-1.1-0.6-2c-1.7,1.7-3.1,2.8-5.1,3.3
	c-1-1.4-2.7-2.1-3.2-3.9c-0.6-2-1.5-4-2.4-5.9c-0.6-1.4-0.6-1.4-2.6-1.2c-0.1,1.2,0.1,2.5-0.3,3.5c-0.7,1.4-0.7,2.9-0.3,4.1
	c0.5,1.6,0.9,3.6,3.1,4.3c0.8,0.2,1.5,1,2.5,1.6c-1,0.9-1.7,1.6-2.4,2.2c-1.6-1-1.6-3.3-4-3.5c0,1,0,1.8-0.1,2.4
	c0.8,0.7,1.2,1.2,1.7,1.8c-0.6,0.3-0.9,0.4-1.4,0.7c-0.1-0.9-0.2-1.5-0.3-2.5c-0.8-0.5-1.7-1.2-2.6-2c-0.2-0.2-0.5-0.3-0.9-0.4
	c-0.4,0.5-0.8,1-1.4,1.6c0.7,0.5,1.3,0.8,1.7,1.1c0,1.2-0.1,2,0,2.9c0.1,0.8,0.5,1.5,0.7,2.3h-1.8c-1.2-1.2-2.5-2.5-3.7-3.7
	c0,0-0.2-0.1-0.2-0.1c-0.1,0-0.1,0.2-0.4,0.4c0.5,1.4,2,2,2.6,3c-0.3,1.6-0.5,2.9-0.7,4.3c-1.6,0-1.9,1.6-2.8,2.5h17.6
	c5.2,0.1,8.9,1.6,11.1,4.6c1.3,1.8,2,4,2,6.5c0,2.6-0.7,4.7-2,6.3c-0.7,0.9-1.8,1.7-3.3,2.4c2.2,0.8,3.8,2.1,4.9,3.8
	c1.1,1.7,1.7,3.8,1.7,6.3c0,2.5-0.6,4.8-1.9,6.8c-0.8,1.3-1.8,2.5-3,3.4c-1.4,1-3,1.8-4.8,2.2c-1.8,0.4-3.9,0.6-6,0.6h-18
	c0,0-0.1,0.1-0.1,0.1c0.4,1.1,0.8,1.9,1,2.5c1.5-0.3,2.9-0.5,4.5-0.8c0.7,0.5,1.7,1.3,2.7,2c-0.1,0.1-0.2,0.2-0.3,0.3
	c0.3,0.7,0.7,1.5,1,2.2h2.7c-0.3,1.3-0.5,2.3-0.8,3.7c1.4,0.3,3,0.7,4.6,1.1v4.6c-0.5,1.6-2.8,2.5-1.9,4.7c0.8,1,1.7,1.9,2.5,2.9
	c-0.3,0.6-0.6,1.3-1,2c-1,0.1-2.2-0.4-3,1.2c0,0.5,0.1,1.3,0.1,2.1c1,0,1.8,0,2.6,0c0-0.6,0-1.2,0-1.9c0.6,1.1,0.6,1.1,0,1.9
	c0,0.8-0.2,1.7,1.2,1.2v-2.1c1.2-1.1,2.3-2,3.4-3c0-0.4,0-0.8,0.1-1.3c0.5,0,0.8,0,1.2,0.1c-0.4,0.6-0.7,1.1-1,1.5
	c-0.1-0.1-0.2-0.2-0.3-0.3c0.1,0.5,0.2,0.9,0.4,2c0.8-1,1.4-1.5,1.6-2.1C43,92.9,44,91.9,45,91c0.1-0.1,0-0.3,0.1-0.5
	c-0.4-0.3-0.9-0.6-1.2-0.8c-0.5,0.3-0.7,0.5-1.2,0.9v-3.6c-1.2-1.6-3.6-1.8-3.8-4.1c0.9-0.3,1.8-0.6,3.1-1c0.5,0.7,1.1,1.5,1.5,2
	c1.3,0.4,1.9-0.3,2.5-0.9c0.1-0.1,0.3-0.1,0.4-0.2c0.1,0.4,0.3,0.8,0.4,1.1h2.3c0.4-0.7,0.8-1.3,1.2-1.9c1,0.1,1.8,1.4,2.8,0.4
	c0.1-0.4,0.1-0.7,0.2-1c1.5,1.4,3,2.7,4.5,4c-0.4,0.5-0.9,1.1-1.2,1.5c0.3,0.9,0.5,1.6,0.8,2.4c1.7-0.8,1.9-0.9,5.5-0.6
	c0.4,0.6,0.8,1.3,1.3,2c0.8-0.3,1.4-0.6,1.8-0.7c1.7,0.6,3.2,1.1,4.8,1.6c0,1.1,1.1,1.5,1.9,2.5c0.1-1.3,0.2-2.1,0.2-3
	c0.5,0.4,0.8,0.6,1.3,1.1c0.5-0.7,0.8-1.3,1.2-1.9c0.4-0.7,0.8-1.4,1.3-2.5c-0.4-0.2-0.9-0.5-1.3-0.8c0-1.4,0-2.6,0-3.8
	c0-0.2,0.4-0.3,0.6-0.5c-0.2-1.2,0.5-1.7,1.5-2c0.3,0.3,0.5,0.5,0.8,0.7c0,0,0.1-0.1,0.4-0.3c-0.1-2-1.9-3.2-2.7-4.8
	c0.5-1.5,0.9-2.8,1.3-4.1c1.1,0,1.9,0,2.5-0.2c0.3-0.5,0.8-0.8,1.4-1.2c0,0.4,0,0.8,0.1,1.2c-0.5,0-0.9,0.1-1.3,0.1
	c-0.1-0.1-0.1-0.2-0.2-0.2c-0.1,0.6-0.3,1.1-0.5,1.5c0.4,1.1,1.2,1.5,2.3,1.3c0.5-0.5,1-1,1.8-1.7c1.3,1,3.1,1,3.4,2.9
	c1.2,0.3,2.3,0.6,3.6,0.9v-2.2c-1.3-1.3-2.8-2.8-4.3-4.3c0.3-0.1,0.6-0.2,1.1-0.4v-1.6c-0.8-0.5-1.5-1-2.2-1.5
	c-0.9,0.9-1.9,1.7-3.1,2.3c0.3,0.2,0.5,0.5,0.8,0.9c-0.4,0-0.8,0-1.3,0.1c0-0.3,0-0.5,0-0.7c-2.2,1.1-4.8,1.6-7.8,1.6
	c-4.2,0-7.9-1.3-11.1-3.9c-3.2-2.6-4.8-6.8-4.8-12.7c0-5.5,1.5-9.7,4.4-12.6c2.9-2.9,6.7-4.4,11.3-4.4c2.8,0,5.2,0.5,7.4,1.5
	s4,2.5,5.5,4.7c1,1.4,1.7,3.1,2.2,4.9c1.7-0.9,3.3-1.8,5.2-2.8c0.2,0.4,0.3,0.7,0.5,1.2c0.5,0.3,1.3,0.6,2,1c0.5-0.5,0.8-1,1.3-1.6
	C96.1,45.2,94.9,44.4,93.8,43.6z M38.6,10H38V9.8h0.7V10z M82,33.9H63.4v-4.3H82V33.9z M28.7,62.4H39c1.8,0,3.3-0.2,4.3-0.8
	c1.9-0.9,2.8-2.7,2.8-5.3c0-2.2-0.9-3.8-2.7-4.6c-1-0.5-2.4-0.7-4.3-0.7H28.7V62.4z M45.3,39.1c0-2-0.8-3.3-2.3-4
	c-1.3-0.4-3-0.7-5-0.7h-9.3v9.4h10.4c1.9,0,3.4-0.4,4.5-1.1C44.7,42.2,45.3,40.9,45.3,39.1z M43.5,51.7c-1-0.5-2.4-0.7-4.3-0.7H28.7
	v11.4H39c1.8,0,3.3-0.2,4.3-0.8c1.9-0.9,2.8-2.7,2.8-5.3C46.2,54.1,45.3,52.6,43.5,51.7z M43,35.2c-1.3-0.4-3-0.7-5-0.7h-9.3v9.4
	h10.4c1.9,0,3.4-0.4,4.5-1.1c1.2-0.7,1.7-2,1.7-3.8C45.3,37.1,44.5,35.8,43,35.2z M43.5,51.7c-1-0.5-2.4-0.7-4.3-0.7H28.7v11.4H39
	c1.8,0,3.3-0.2,4.3-0.8c1.9-0.9,2.8-2.7,2.8-5.3C46.2,54.1,45.3,52.6,43.5,51.7z M43,35.2c-1.3-0.4-3-0.7-5-0.7h-9.3v9.4h10.4
	c1.9,0,3.4-0.4,4.5-1.1c1.2-0.7,1.7-2,1.7-3.8C45.3,37.1,44.5,35.8,43,35.2z M91.2,59.5c-1.2-1.7-3-2.3-4.7-3.2H65.9
	c0.1,3.2,1.2,5.4,3.3,6.7c1.3,0.8,2.8,1.2,4.6,1.2c1.9,0,3.4-0.5,4.6-1.4c0.6-0.5,1.2-1.2,1.7-2.2H86c0-0.4,0-0.8,0.2-1.1
	c1.5,0.5,3,0.9,4.4,1.3c-0.2-0.4-0.4-0.8-0.7-1.3H91.2z M78.2,45.9c-1.3-1.1-2.9-1.7-4.9-1.7c-2.1,0-3.8,0.6-4.9,1.8
	c-1.2,1.2-1.9,2.8-2.2,4.9h14.2C80.2,48.7,79.5,47,78.2,45.9z M43.5,51.7c-1-0.5-2.4-0.7-4.3-0.7H28.7v11.4H39
	c1.8,0,3.3-0.2,4.3-0.8c1.9-0.9,2.8-2.7,2.8-5.3C46.2,54.1,45.3,52.6,43.5,51.7z M43,35.2c-1.3-0.4-3-0.7-5-0.7h-9.3v9.4h10.4
	c1.9,0,3.4-0.4,4.5-1.1c1.2-0.7,1.7-2,1.7-3.8C45.3,37.1,44.5,35.8,43,35.2z"/>
<path id="behance-icon" fill="#FFFFFF" d="M23.2,27.1h-3v2.2c0.1,0,0.2,0,0.3,0c0.8-0.1,1.5-0.5,2.4-0.8c-0.2-0.3-0.4-0.5-0.6-0.7
	C22.6,27.6,22.9,27.3,23.2,27.1z M20.1,66.9v2.9h1.3c0.7-0.5,1.4-1,2.1-1.5v-1.4H20.1z M88.7,50.1c0,0,0-0.1,0-0.1
	c0,0.5-0.2,0.9-0.7,1.4c0.6,1.2,0.6,1.2,0.6,2.8h-2.7c0.3-0.8,0.6-1.5,0.8-2.2c-1.2-0.6-2-0.2-2.7,0.7v2.1c0.7,0.7,1.6,1.2,2.5,1.7
	H89C89,53.6,88.9,51.5,88.7,50.1z M86,60.6c0,0.9,0,1.9-1.5,2.1c-0.2-0.1-0.6-0.3-1.2-0.7c-0.3,0.3-0.7,0.6-1.1,0.9
	c0.6,1.6,1.6,2.8,2.9,3.8c0.1-0.1,0.3-0.3,0.4-0.4c1.8-1.9,2.8-3.8,3.1-5.7H86z M88.3,48.4c-0.1,0.1-0.2,0.1-0.3,0.2
	c0.3,0.4,0.5,0.7,0.6,1C88.5,49.2,88.4,48.8,88.3,48.4z M81.4,68.8c0,0.2,0,0.3,0,0.5c0.2-0.1,0.4-0.2,0.6-0.3
	C81.8,68.9,81.6,68.8,81.4,68.8z M81.3,68.5c0,0,0.1,0.1,0.1,0.1c0.1-0.1,0.2-0.2,0.3-0.3C81.5,68.5,81.4,68.5,81.3,68.5z
	 M81.4,68.6C81.4,68.7,81.4,68.7,81.4,68.6l-0.1,0.1C81.4,68.7,81.4,68.7,81.4,68.6L81.4,68.6z M81.4,68.8
	C81.3,68.8,81.3,68.8,81.4,68.8C81.3,68.8,81.4,68.8,81.4,68.8C81.4,68.8,81.4,68.8,81.4,68.8z M81,68.1c-0.1,0.1-0.1,0.1-0.2,0.2
	c0.1,0.1,0.3,0.2,0.5,0.2C81.2,68.4,81.1,68.2,81,68.1z"/>
</svg>
