<?xml version="1.0" encoding="utf-8"?>
<!-- Generator: Adobe Illustrator 18.1.0, SVG Export Plug-In . SVG Version: 6.00 Build 0)  -->
<svg version="1.1" id="Layer_1" xmlns="http://www.w3.org/2000/svg" xmlns:xlink="http://www.w3.org/1999/xlink" x="0px" y="0px"
	 viewBox="0 0 1224 792" enable-background="new 0 0 1224 792" xml:space="preserve">
<path fill="#FFFFFF" d="M958.9,345.3c-7.9,6.3-12.7,16.6-24.6,9.5c1.6-3.2,3.2-6.3,4.8-9.5c-6.3-4-11.1-7.9-15-11.1
	c1.6-4,2.4-5.5,4-7.9c-9.5-0.8-16.6-1.6-24.6-2.4c-3.2-0.8-6.3-2.4-13.5-5.5c11.1-9.5,16.6-14.3,23-19.8v-7.9
	c-12.7-9.5-22.2-21.4-24.6-35.6c1.6-4.8,3.2-7.1,4.8-10.3c-4-2.4-7.9-4-13.5-6.3c15-2.4,28.5-3.2,41.2-7.1
	c11.9-4,22.2-12.7,35.6-19.8c-1.6-4-4-10.3-5.5-14.3c-11.9-2.4-23-7.1-30.9-4.8c-10.3,4-19.8,2.4-30.1,2.4c-9.5,0-19.8,2.4-30.9-3.2
	c7.9-13.5,20.6-20.6,24.6-34.8c-14.3,11.1-28.5,22.2-42,32.5c-13.5,3.2-15.8-7.9-21.4-11.9c1.6-4,3.2-6.3,4-8.7
	c-6.3,1.6-12.7,3.2-18.2,4.8c-1.6-1.6-4-3.2-4.8-4c-4,1.6-7.9,3.2-11.1,4.8c-7.1-14.3-7.1-15-17.4-15.8c-11.1-0.8-19-5.5-30.1-17.4
	c23,4.8,34.8-11.1,49.9-13.5c19.8-3.2,29.3-18.2,42.8-29.3V84.7h-12.7c-11.9,11.9-24.6,24.6-36.4,36.4c-4.8,0-8.7,0-12.7,0
	c-0.8,1.6-2.4,3.2-3.2,4.8c-0.8-0.8-0.8-0.8-1.6-1.6c1.6-1.6,3.2-2.4,4-4l0.8,0.8c0-4.8,0-8.7,0-13.5c-7.1-3.2-14.3-7.1-20.6-10.3
	c0-4.8-0.8-8.7-0.8-13.5c-11.1,6.3-10.3,23.8-26.1,23v23.8c-10.3,1.6-19,3.2-24.6-7.1c1.6-3.2,4-5.5,5.5-8.7
	c-5.5-4-11.1-6.3-14.3-10.3c-3.2-4-3.2-10.3-4-12.7c-4.8-3.2-7.1-4.8-10.3-6.3c7.9-11.1,15-21.4,21.4-30.1c3.2-15-2.4-29.3,4-42
	c-1.6-4.8-3.2-7.9-4.8-12.7h-23.8c-5.5,7.9-11.1,15.8-14.3,20.6C654,43.6,669,61.8,659.5,80c7.1,6.3,6.3,15,3.2,24.6
	c-4-1.6-7.1-3.2-9.5-4c-7.1,1.6-12.7,2.4-17.4,3.2c-3.2-8.7-6.3-15-8.7-21.4c-9.5,4.8-12.7,16.6-24.6,15.8V74.4
	c-1.6,0.8-3.2,2.4-4.8,4c-1.6-4.8-2.4-8.7-4.8-15.8c-13.5,13.5-24.6,22.2-40.4,26.1c-7.9-11.1-21.4-16.6-25.3-30.9
	c-4.8-15.8-11.9-31.7-19-46.7C503.5,0,503.5,0,487.7,1.6c-0.8,9.5,0.8,19.8-2.4,27.7c-5.5,11.1-5.5,23-2.4,32.5
	c4,12.7,7.1,28.5,23.8,34.1c6.3,1.6,11.9,7.9,19.8,12.7c-7.9,7.1-13.5,12.7-19,17.4c-12.7-7.9-12.7-26.1-31.7-27.7
	c0,7.9,0,14.3-0.8,19c6.3,5.5,9.5,9.5,13.5,14.3c-4,2.4-7.1,3.2-11.1,5.5c-0.8-7.1-1.6-11.9-2.4-19.8c-6.3-4-13.5-9.5-20.6-15.8
	c-1.6-1.6-4-2.4-7.1-3.2c-3.2,4-6.3,7.9-11.1,12.7c5.5,4,10.3,6.3,13.5,8.7c0,9.5-0.8,15.8,0,23c0,0.8,0,1.6,0.8,3.2
	c30.9,0.8,54.6,26.1,54.6,57c0,31.7-25.3,57-57,57c-23.8,0-45.1-15-53.1-36.4c-6.3,2.4-11.1,5.5-16.6,6.3c-7.1,1.6-13.5,0-20.6,0
	c-2.4,2.4-4.8,4.8-6.3,6.3c1.6,5.5,2.4,10.3,4,14.3c-8.7,0-19-2.4-25.3,6.3c-9.5-6.3-17.4-11.1-25.3-16.6
	c-21.4,4-41.2-11.1-63.4-3.2v8.7c12.7,4.8,28.5,2.4,37.2,17.4c-2.4,3.2-4,5.5-5.5,7.1c3.2,10.3,6.3,20.6,9.5,29.3h44.4
	c11.9-13.5,19.8,0.8,27.7,2.4c-4.8,14.3-8.7,26.9-13.5,41.2c-4,1.6-15,2.4-15.8,5.5c-1.6,11.9-11.9,11.9-18.2,12.7
	c-7.9,1.6-17.4-1.6-27.7-3.2c-7.1,2.4-15.8,6.3-23.8,8.7c-4.8-2.4-7.9-4.8-11.1-6.3c-3.2,3.2-6.3,6.3-7.9,7.9v13.5
	c20.6,2.4,40.4,4.8,57.8,7.1c5.5-5.5,7.9-8.7,11.9-11.9c7.1,0,13.5,0.8,20.6,0c5.5-0.8,11.9-3.2,17.4-5.5c0.8,1.6,0.8,3.2,1.6,4.8
	c-7.9,4-16.6,7.1-23.8,10.3c-4-1.6-6.3-3.2-7.9-4c-5.5,6.3-9.5,11.1-13.5,15.8c2.4,2.4,6.3,6.3,9.5,9.5c6.3,0.8,12.7,1.6,18.2,1.6
	v16.6c-5.5-2.4-8.7-4.8-10.3-5.5c-10.3,4-19.8,7.9-30.9,11.9c0.8,2.4,1.6,5.5,3.2,7.9c12.7-0.8,20.6-15,38-7.1
	c-12.7,4.8-21.4,11.1-30.1,11.1c-19,0.8-34.1,11.1-48.3,21.4c-1.6,1.6-2.4,4-4,7.1c5.5,5.5,11.1,10.3,18.2,15.8
	c4-5.5,7.1-9.5,9.5-14.3c9.5,11.1,20.6,4.8,30.1,6.3c1.6,5.5,3.2,10.3,5.5,16.6c20.6-13.5,21.4-36.4,32.5-53.1
	c7.1,4.8,13.5,8.7,19,12.7c0.8,11.1-0.8,17.4-11.1,19c-3.2,0.8-7.1,1.6-13.5,3.2c8.7,8.7,14.3,14.3,19.8,19.8
	c-7.1,7.1-14.3,14.3-20.6,20.6c2.4,2.4,4.8,4.8,7.9,7.9c6.3-4.8,12.7-9.5,19.8-14.3c0.8-0.8,2.4,0.8,3.2,0.8v11.9
	c-4,1.6-7.1,2.4-9.5,3.2v13.5c11.9,1.6,14.3-7.9,18.2-14.3h27.7V302.5h95.8v309.7h-22.2c-1.6,6.3-2.4,12.7-4,19.8
	c11.9,2.4,23.8,5.5,36.4,8.7v36.4c-4,12.7-22.2,19.8-15,37.2c6.3,7.9,13.5,15,19.8,23c-2.4,4.8-4.8,10.3-7.9,15.8
	c-7.9,0.8-17.4-3.2-23.8,9.5c0,4,0.8,10.3,0.8,16.6c7.9,0,14.3,0,20.6,0c0-4.8,0-9.5,0-15c4.8,8.7,4.8,8.7,0,15
	c0,6.3-1.6,13.5,9.5,9.5v-16.6c9.5-8.7,18.2-15.8,26.9-23.8c0-3.2,0.8-6.3,0.8-10.3c4,0,6.3,0,9.5,0.8c-3.2,4.8-5.5,8.7-7.9,11.9
	c-0.8-0.8-1.6-1.6-2.4-2.4c0.8,4,1.6,7.1,3.2,15.8c6.3-7.9,11.1-11.9,12.7-16.6c0.8-11.9,8.7-19.8,16.6-26.9c0.8-0.8,0-2.4,0.8-4
	c-3.2-2.4-6.3-4.8-9.5-6.3c-4,2.4-5.5,4-9.5,7.1V689c-9.5-12.7-28.5-14.3-30.1-32.5c7.1-2.4,14.3-4.8,24.6-7.9
	c4,5.5,8.7,11.9,11.9,15.8c10.3,3.2,15-2.4,19.8-7.1c0.8-0.8,2.4-0.8,3.2-1.6c1.6,3.2,2.4,6.3,3.2,8.7h18.2c3.2-5.5,6.3-10.3,9.5-15
	c7.9,0.8,14.3,11.1,22.2,3.2c0.8-3.2,0.8-5.5,1.6-7.9c11.9,11.1,23.8,21.4,36.4,31.7c-4,4-7.1,8.7-9.5,11.9c2.4,7.1,4,12.7,6.3,19
	c12.7-6.3,15-7.1,43.6-4.8c3.2,4.8,6.3,10.3,10.3,15.8c6.3-2.4,11.1-4.8,15-5.5c13.5,4.8,25.3,8.7,38,12.7c0,8.7,8.7,11.9,15,19.8
	c0.8-10.3,1.6-16.6,1.6-23.8c4,3.2,6.3,4.8,10.3,8.7c4-5.5,6.3-10.3,9.5-15c3.2-5.5,6.3-11.1,10.3-19.8c-2.4-1.6-7.1-4-10.3-6.3
	c0-11.1,0-20.6,0-30.1c0-1.6,3.2-2.4,4.8-4c-1.6-9.5,4-13.5,11.9-15.8c2.4,2.4,4,4,6.3,5.5c0,0,1.6-0.8,3.2-2.4
	c-0.8-11.1-7.9-19.8-14.3-27.7h-64.9c0,0,0-118,0-162.4s-18.2-72.1-53.1-72.1c-38,0-58.6,26.1-58.6,69.7c0,47.5,0,162.4,0,162.4
	h-91.9V302.5H650v42c0,0,27.7-51.5,93.5-51.5s112.5,40.4,112.5,122.8v125.1c0.8-0.8,0.8-0.8,1.6-1.6c0.8,0.8,1.6,2.4,2.4,3.2
	c0.8,0,1.6-0.8,3.2-0.8c-0.8,0.8-1.6,1.6-2.4,2.4l0,0l-0.8,0.8l0,0c5.5,0.8,7.9,4,10.3,8.7c-3.2,0-6.3,0-9.5,0.8
	c0-4-0.8-7.1-0.8-9.5l0,0l0,0l0,0c0,0,0,0,0.8-0.8l-0.8-0.8c-2.4,0-3.2-0.8-4-1.6v20.6c1.6-0.8,2.4-1.6,4-2.4c0,3.2,0.8,6.3,0.8,9.5
	c-1.6,0-3.2,0-4.8,0c-2.4,0-4,0-5.5,0.8c-0.8-0.8-0.8-1.6-1.6-1.6c-0.8,4.8-2.4,8.7-4,11.9c2.4,6.3,6.3,9.5,11.1,10.3
	c2.4,0,4.8,0,7.1,0c4-4,7.9-7.9,14.3-13.5c10.3,7.9,24.6,7.9,26.9,23c9.5,2.4,19,4.8,29.3,7.1V590c-10.3-10.3-22.2-22.2-34.1-34.1
	c2.4-0.8,4.8-1.6,8.7-3.2v-12.7c-16.6-10.3-33.3-21.4-40.4-41.2c3.2-2.4,6.3-5.5,8.7-7.1c4.8,3.2,8.7,4.8,9.5,5.5
	c17.4-3.2,9.5-16.6,13.5-25.3c11.9,4,23.8,7.1,34.8,10.3c-1.6-3.2-3.2-6.3-5.5-10.3h10.3c-15-20.6-42-23-57.8-38.8v-16.6
	c5.5-7.1,11.1-10.3,21.4-5.5c-1.6,5.5-4,11.1-6.3,17.4h21.4c0-12.7,0-12.7-4.8-22.2c7.9-7.1,6.3-14.3,0-21.4
	c14.3-7.9,28.5-15,43.6-23.8c1.6,3.2,2.4,5.5,4,9.5c4.8,2.4,10.3,4.8,15.8,7.9c4-4,7.1-7.9,10.3-12.7
	C977.1,358,967.6,351.6,958.9,345.3z M521.7,79.2H517v-1.6h5.5v1.6H521.7z M308.7,476.8C308.7,476.8,308.7,476,308.7,476.8
	c0-2.4,1.6-4,2.4-5.5c0.8,0.8,0.8,0.8,1.6,1.6C311.8,474.4,310.2,476,308.7,476.8z M363.3,262.2c-1.6-1.6-2.4-3.2-4-4l0.8-0.8
	c1.6,0.8,3.2,2.4,4.8,3.2L363.3,262.2z M421.9,154.4c2.4-1.6,4.8-2.4,7.1-3.2c-5.5-5.5-11.9-11.9-17.4-17.4l-1.6-0.8
	c-0.8,0-1.6,1.6-3.2,3.2C409.2,144.1,416.4,149.7,421.9,154.4z M393.4,218.6h-0.8c0.8,0.8,0.8,0.8,1.6,1.6
	C393.4,220.2,393.4,219.4,393.4,218.6z M384.7,553.6c3.2,8.7,6.3,15,7.9,19.8c2.4-0.8,5.5-0.8,7.9-1.6v-30.1
	C395.8,545.7,390.2,549.6,384.7,553.6z"/>
<path id="linkedin-icon" fill="#FFFFFF" d="M449.6,148.1c-0.8,0-0.8,0-1.6,0c-7.1,0-13.5,1.6-19.8,4c4,4,7.9,7.9,11.9,11.9h14.3
	C453.6,157.6,451.2,152.9,449.6,148.1z M395,225.7c0.8,0,0.8,0,1.6-0.8c-0.8-1.6-2.4-3.2-3.2-4C394.2,222.6,395,224.1,395,225.7z
	 M400.5,529.8v11.9c0.8,0,0.8-0.8,1.6-0.8v-11.1H400.5z M855.9,540.9L855.9,540.9L855.9,540.9L855.9,540.9z M848.8,568.7
	c-4.8,1.6-11.1,1.6-19,1.6c-3.2,9.5-6.3,20.6-10.3,32.5c1.6,3.2,4,7.1,7.1,10.3h30.1c0,0,0-7.9,0-21.4v-29.3
	C852.8,564.7,850.4,566.3,848.8,568.7z"/>
</svg>
