<?xml version="1.0" encoding="utf-8"?>
<!-- Generator: Adobe Illustrator 18.1.0, SVG Export Plug-In . SVG Version: 6.00 Build 0)  -->
<svg version="1.1" id="Layer_1" xmlns="http://www.w3.org/2000/svg" xmlns:xlink="http://www.w3.org/1999/xlink" x="0px" y="0px"
	 viewBox="0 0 1224 792" enable-background="new 0 0 1224 792" xml:space="preserve">
<path fill="#FFFFFF" d="M958.9,345.3c-7.9,6.3-12.7,16.6-24.6,9.5c1.6-3.2,3.2-6.3,4.8-9.5c-5.5-4-11.1-7.9-15-11.1
	c1.6-4,2.4-5.5,4-7.9c-9.5-0.8-16.6-1.6-23.8-2.4c-3.2-0.8-6.3-2.4-13.5-5.5c11.1-9.5,16.6-14.3,23-19.8v-7.9
	c-12.7-9.5-22.2-21.4-24.6-35.6c1.6-4.8,3.2-7.1,4.8-10.3c-4-2.4-7.9-4-13.5-6.3c15-2.4,28.5-3.2,41.2-7.1
	c11.9-4,22.2-12.7,35.6-19.8c-1.6-4-4-10.3-5.5-14.3c-11.9-2.4-23-7.1-30.1-4.8c-10.3,4-19.8,2.4-30.1,2.4c-8.7,0-18.2,2.4-27.7-1.6
	c-8.7,21.4-24.6,38.8-43.6,50.7c21.4-2.4,42-7.9,61-16.6c-14.3,21.4-32.5,39.6-53.1,54.6c7.1,149.7-104.5,316-301.8,316
	c-26.1,0-50.7-3.2-74.4-9.5c2.4,4,4,8.7,6.3,13.5h21.4c-2.4,10.3-4,18.2-6.3,29.3c11.1,2.4,23.8,5.5,36.4,8.7v36.4
	c-4,12.7-22.2,19.8-15,37.2c6.3,7.9,13.5,15,19.8,23c-2.4,4.8-4.8,10.3-7.9,15.8c-7.9,0.8-17.4-3.2-23.8,9.5c0,4,0.8,10.3,0.8,16.6
	c7.9,0,14.3,0,20.6,0c0-4.8,0-9.5,0-15c4.8,8.7,4.8,8.7,0,15c0,6.3-1.6,13.5,9.5,9.5v-16.6c9.5-8.7,18.2-15.8,26.9-23.8
	c0-3.2,0-6.3,0.8-10.3c4,0,6.3,0,9.5,0.8c-3.2,4.8-5.5,8.7-7.9,11.9c-0.8-0.8-1.6-1.6-2.4-2.4c0.8,4,1.6,7.1,3.2,15.8
	c6.3-7.9,11.1-11.9,12.7-16.6c0-11.1,7.9-19,15.8-26.1c0.8-0.8,0-2.4,0.8-4c-3.2-2.4-7.1-4.8-9.5-6.3c-4,2.4-5.5,4-9.5,7.1V689
	c-9.5-12.7-28.5-14.3-30.1-32.5c7.1-2.4,14.3-4.8,24.6-7.9c4,5.5,8.7,11.9,11.9,15.8c10.3,3.2,15-2.4,19.8-7.1
	c0.8-0.8,2.4-0.8,3.2-1.6c0.8,3.2,2.4,6.3,3.2,8.7h18.2c3.2-5.5,6.3-10.3,9.5-15c7.9,0.8,14.3,11.1,22.2,3.2
	c0.8-3.2,0.8-5.5,1.6-7.9c11.9,11.1,23.8,21.4,35.6,31.7c-3.2,4-7.1,8.7-9.5,11.9c2.4,7.1,4,12.7,6.3,19c13.5-6.3,15-7.1,43.6-4.8
	c3.2,4.8,6.3,10.3,10.3,15.8c6.3-2.4,11.1-4.8,14.3-5.5c13.5,4.8,25.3,8.7,38,12.7c0,8.7,8.7,11.9,15,19.8
	c0.8-10.3,1.6-16.6,1.6-23.8c4,3.2,6.3,4.8,10.3,8.7c4-5.5,6.3-10.3,9.5-15c3.2-5.5,6.3-11.1,10.3-19.8c-3.2-1.6-7.1-4-10.3-6.3
	c0-11.1,0-20.6,0-30.1c0-1.6,3.2-2.4,4.8-4c-1.6-9.5,4-13.5,11.9-15.8c2.4,2.4,4,4,6.3,5.5c0,0,0.8-0.8,3.2-2.4
	c-0.8-15.8-15-25.3-21.4-38c4-11.9,7.1-22.2,10.3-32.5c8.7,0,15,0,19.8-1.6c2.4-4,6.3-6.3,11.1-9.5c0,3.2,0,6.3,0.8,9.5
	c-4,0-7.1,0.8-10.3,0.8c-0.8-0.8-0.8-1.6-1.6-1.6c-0.8,4.8-2.4,8.7-4,11.9c3.2,8.7,9.5,11.9,18.2,10.3c4-4,7.9-7.9,14.3-13.5
	c10.3,7.9,24.6,7.9,26.9,23c9.5,2.4,18.2,4.8,28.5,7.1v-17.4c-10.3-10.3-22.2-22.2-34.1-34.1c2.4-0.8,4.8-1.6,8.7-3.2v-12.7
	c-16.6-10.3-33.3-21.4-40.4-41.2c3.2-2.4,6.3-5.5,8.7-7.1c4.8,3.2,8.7,4.8,9.5,5.5c17.4-3.2,9.5-16.6,13.5-25.3
	c11.9,4,23.8,7.1,34.8,10.3c-1.6-3.2-3.2-6.3-5.5-10.3h10.3c-13.5-21.4-40.4-23.8-56.2-39.6v-16.6c5.5-7.1,11.1-10.3,21.4-5.5
	c-2.4,5.5-4,11.1-6.3,17.4h21.4c0-12.7,0-12.7-4.8-22.2c7.9-7.1,6.3-14.3,0-21.4c14.3-7.9,28.5-15,43.6-23.8c1.6,3.2,2.4,5.5,4,9.5
	c4,2.4,10.3,4.8,15.8,7.9c4-4,6.3-7.9,10.3-12.7C977.1,358,967.6,351.6,958.9,345.3z M871,553.6c-3.2,0-6.3,0-10.3,0.8
	c0-4-0.8-7.1-0.8-9.5l0,0l0,0l0,0c0,0,0,0,0.8-0.8l-0.8-0.8c-2.4,0-3.2-0.8-4-1.6c0.8-0.8,0.8-0.8,1.6-1.6c0.8,0.8,1.6,2.4,2.4,3.2
	c0.8,0,1.6-0.8,3.2-0.8c-0.8,0.8-1.6,1.6-2.4,2.4l0,0l-0.8,0.8l0,0C865.4,545.7,867.8,548.9,871,553.6z M405.3,206.7
	C457.6,265.3,532,304.1,616,308.1c-15.8-66.5,34.8-130.7,103.8-130.7c30.9,0,57.8,12.7,77.6,33.3c23-4.8,45.1-12.7,64.9-24.6
	c7.9-10.3,17.4-17.4,21.4-30.1c-14.3,11.1-28.5,22.2-42,32.5c-13.5,3.2-15-7.9-21.4-11.9c2.4-4,3.2-6.3,4-8.7
	c-6.3,1.6-12.7,3.2-18.2,4.8c-1.6-1.6-4-3.2-4.8-4c-4,1.6-7.9,3.2-11.1,4.8c-7.1-14.3-7.1-15-17.4-15.8c-11.1-0.8-19-5.5-30.1-17.4
	c23,4.8,34.8-11.1,49.9-13.5c19.8-3.2,29.3-18.2,42.8-29.3V84h-13.5c-11.9,11.9-24.6,24.6-36.4,36.4c-4.8,0-8.7,0-12.7,0
	c-0.8,1.6-2.4,3.2-3.2,4.8c-0.8-0.8-0.8-0.8-1.6-1.6c1.6-1.6,2.4-2.4,4-4l0.8,0.8c0-4.8,0-8.7,0-13.5c-7.1-3.2-14.3-7.1-20.6-10.3
	c0-4.8-0.8-8.7-0.8-13.5c-11.1,6.3-10.3,23.8-26.1,23v23.8c-10.3,1.6-19,3.2-24.6-7.1c1.6-3.2,4-5.5,5.5-8.7
	c-5.5-4-11.1-6.3-14.3-10.3c-3.2-4-3.2-10.3-4-12.7c-4.8-3.2-7.1-4.8-11.1-6.3c7.9-11.1,15.8-21.4,21.4-30.1c3.2-15-2.4-29.3,4.8-42
	c-1.6-4.8-3.2-7.9-5.5-12.7h-23.8c-5.5,7.9-11.1,15.8-14.3,20.6c-7.1,22.2,7.9,40.4-1.6,58.6c7.1,6.3,6.3,15,3.2,24.6
	c-4-1.6-7.1-3.2-9.5-4c-7.1,1.6-12.7,2.4-17.4,3.2c-3.2-8.7-6.3-15-8.7-21.4c-9.5,4.8-12.7,16.6-24.6,15.8V73.7
	c-1.6,0.8-3.2,2.4-4.8,4c-1.6-4.8-2.4-8.7-4.8-15.8C577.9,75.2,566.9,84,551,87.9c-7.9-11.1-21.4-16.6-25.3-30.9
	c-4.8-15.8-11.9-31.7-19-46.7c-4.8-11.1-4.8-11.1-20.6-9.5c-0.8,9.5,0.8,19.8-2.4,27.7c-5.5,11.1-5.5,23-2.4,32.5
	c4,12.7,7.1,28.5,24.6,34.1c6.3,1.6,11.9,7.9,19.8,12.7c-7.9,7.1-13.5,12.7-19,17.4C494,117.2,494,99,475,97.4c0,7.9,0,14.3-0.8,19
	c6.3,5.5,9.5,9.5,13.5,14.3c-4.8,2.4-7.1,3.2-11.1,5.5c-0.8-7.1-1.6-11.9-2.4-19.8c-6.3-4-13.5-9.5-20.6-15.8
	c-1.6-1.6-4-2.4-7.1-3.2c-3.2,4-6.3,7.9-11.1,12.7c5.5,4,10.3,6.3,13.5,8.7c0,9.5-0.8,15.8,0,23c0.8,6.3,4,11.9,5.5,18.2h-14.3
	c-9.5-9.5-19.8-19.8-29.3-29.3l-1.6-0.8c-0.8,0-0.8,1.6-3.2,3.2c4,11.1,15.8,15.8,20.6,23.8c-2.4,12.7-4,23-5.5,34.1
	C412.4,194.8,409.2,200.4,405.3,206.7z M521.7,79.2H517v-1.6h5.5v1.6H521.7z M387.1,552c47.5,0,93.5-15.8,131.5-45.9
	c-46.7-0.8-85.5-31.7-99-73.7c16.6,3.2,33.3,2.4,48.3-1.6c-51.5-10.3-86.3-56.2-85.5-105.3c14.3,7.9,30.9,12.7,48.3,13.5
	c-37.2-24.6-53.1-68.1-45.1-109.3c-2.4,0.8-4,1.6-6.3,1.6c-6.3,1.6-13.5,0-20.6,0l-6.3,6.3c1.6,5.5,2.4,10.3,4,14.3
	c-9.5,0-19-2.4-25.3,6.3c-9.5-6.3-17.4-11.1-25.3-16.6c-21.4,4-41.2-11.1-63.4-3.2v7.1c12.7,4.8,28.5,2.4,37.2,17.4
	c-2.4,3.2-4,5.5-5.5,7.1c3.2,10.3,6.3,20.6,9.5,29.3h43.6c11.9-13.5,19.8,0.8,27.7,2.4c-4.8,14.3-8.7,26.9-13.5,41.2
	c-4,1.6-15,2.4-15.8,5.5c-1.6,11.9-11.9,11.9-18.2,12.7c-7.9,1.6-17.4-1.6-27.7-3.2c-7.1,2.4-15.8,6.3-23.8,8.7
	c-4-2.4-7.9-4.8-11.1-6.3c-3.2,3.2-5.5,6.3-7.9,7.9v13.5c20.6,2.4,40.4,4.8,57.8,7.1c5.5-5.5,7.9-8.7,11.9-11.9
	c6.3,0,13.5,0.8,20.6,0c5.5-0.8,11.9-3.2,17.4-5.5c0.8,1.6,0.8,3.2,1.6,4.8c-7.9,4-16.6,7.1-23.8,10.3c-4-1.6-6.3-3.2-7.9-4
	c-5.5,6.3-9.5,11.1-13.5,15.8c2.4,2.4,6.3,6.3,9.5,9.5c6.3,0.8,12.7,1.6,17.4,1.6v16.6c-5.5-2.4-8.7-4.8-10.3-5.5
	c-10.3,4-19.8,7.9-30.9,11.9c0.8,2.4,1.6,5.5,3.2,7.9c12.7-0.8,20.6-15,38-7.1c-12.7,4.8-21.4,11.1-30.9,11.1
	c-19,0.8-34.1,11.1-48.3,21.4c-1.6,1.6-2.4,4-4,7.1c5.5,5.5,11.1,10.3,18.2,15.8c4-5.5,7.1-9.5,9.5-14.3c9.5,11.1,20.6,4.8,30.1,6.3
	c1.6,5.5,3.2,10.3,5.5,16.6c20.6-13.5,21.4-36.4,32.5-53.1c7.1,4.8,13.5,8.7,19,12.7c0.8,11.1-0.8,17.4-11.1,19
	c-3.2,0.8-7.1,1.6-13.5,3.2c8.7,8.7,14.3,14.3,19.8,19.8c-7.1,7.1-14.3,14.3-20.6,20.6c2.4,2.4,4.8,4.8,7.9,7.9
	c6.3-4.8,12.7-9.5,19.8-14.3c0.8-0.8,2.4,0.8,3.2,0.8v11.9c-4,1.6-7.1,2.4-9.5,3.2v13.5c11.9,1.6,14.3-7.9,18.2-14.3h28.5v11.1
	C397.4,544.9,391.8,548.1,387.1,552z M308.7,476.8C308.7,476.8,308.7,476,308.7,476.8c0-2.4,1.6-4,2.4-5.5c0.8,0.8,0.8,0.8,1.6,1.6
	C311.8,474.4,310.2,476,308.7,476.8z M363.3,262.2c-1.6-1.6-2.4-3.2-4-4l0.8-0.8c1.6,0.8,3.2,2.4,4.8,3.2
	C364.9,261.4,364.1,262.2,363.3,262.2z M392.6,573.4c2.4-0.8,4.8-0.8,7.1-1.6c-3.2-1.6-6.3-3.2-9.5-4.8
	C391,569.4,391.8,571.8,392.6,573.4z"/>
<path fill="#FFFFFF" d="M384.7,553.6c2.4,5.5,4,10.3,5.5,13.5c-10.3-4.8-19.8-10.3-29.3-16.6c8.7,0.8,17.4,1.6,25.3,1.6
	C386.3,552.8,385.5,552.8,384.7,553.6z"/>
<path fill="#FFFFFF" d="M392.6,219.4c1.6,1.6,3.2,3.2,4.8,5.5c-4.8,1.6-8.7,3.2-12.7,4.8c2.4-11.1,6.3-22.2,12.7-32.5
	c2.4,3.2,5.5,6.3,7.9,9.5C402.1,211.5,399,217,392.6,219.4z"/>
<path fill="#FFFFFF" d="M449.6,582.9c-0.8,0.8-1.6,1.6-2.4,2.4c0.8,1.6,1.6,2.4,1.6,4c-16.6-4.8-33.3-10.3-49.1-17.4
	c9.5-1.6,18.2-3.2,28.5-4.8C433.8,571,441.7,577.4,449.6,582.9z"/>
<path fill="#FFFFFF" d="M864.6,185.3c-0.8,3.2-1.6,5.5-3.2,7.9c-0.8,0-2.4-0.8-3.2-1.6c0.8-1.6,2.4-4,3.2-5.5
	C863.1,186.1,863.9,186.1,864.6,185.3z"/>
</svg>
