<?xml version="1.0" encoding="utf-8"?>
<!-- Generator: Adobe Illustrator 18.1.0, SVG Export Plug-In . SVG Version: 6.00 Build 0)  -->
<svg version="1.1" id="Layer_1" xmlns="http://www.w3.org/2000/svg" xmlns:xlink="http://www.w3.org/1999/xlink" x="0px" y="0px"
	 viewBox="0 0 1224 792" enable-background="new 0 0 1224 792" xml:space="preserve">
<path fill="#FFFFFF" d="M612,339c-32.5,0-58.6,26.1-58.6,58.6s26.1,58.6,58.6,58.6s58.6-26.1,58.6-58.6S644.5,339,612,339z
	 M764.9,226.5h-43.6c-7.1,0-12.7,5.5-12.7,12.7v44.4c0,7.1,5.5,12.7,12.7,12.7h43.6c7.1,0,12.7-5.5,12.7-12.7v-44.4
	C777.5,232.1,772,226.5,764.9,226.5z M764.9,226.5h-43.6c-7.1,0-12.7,5.5-12.7,12.7v44.4c0,7.1,5.5,12.7,12.7,12.7h43.6
	c7.1,0,12.7-5.5,12.7-12.7v-44.4C777.5,232.1,772,226.5,764.9,226.5z M612,339c-32.5,0-58.6,26.1-58.6,58.6s26.1,58.6,58.6,58.6
	s58.6-26.1,58.6-58.6S644.5,339,612,339z M959.7,347.7c-7.9,6.3-12.7,16.6-24.6,9.5c0.8-0.8,1.6-2.4,1.6-3.2c-0.8,0-1.6-0.8-2.4-0.8
	c0.8-2.4,2.4-4.8,3.2-7.1c-4.8-4-9.5-7.1-13.5-9.5c0.8-1.6,0.8-2.4,1.6-3.2l-1.6-1.6c0.8-1.6,1.6-2.4,1.6-3.2
	c-7.9-0.8-15-0.8-22.2-2.4c-3.2-0.8-6.3-2.4-13.5-5.5c0.8-0.8,2.4-1.6,3.2-3.2c-0.8-0.8-2.4-0.8-3.2-1.6c11.1-9.5,16.6-14.3,23-19
	v-4c-12.7-9.5-22.2-20.6-23.8-35.6v-0.8c0-0.8-0.8-2.4-0.8-3.2c1.6-2.4,2.4-4.8,3.2-7.1c-4-1.6-7.1-3.2-11.9-5.5
	c2.4,0,4.8-0.8,7.1-0.8c-2.4-0.8-4-1.6-7.1-3.2c15-2.4,28.5-3.2,41.2-7.1c11.9-4,21.4-11.9,34.1-19c-1.6-4-3.2-7.9-4-10.3
	c-11.9-2.4-23-7.1-30.9-4.8c-10.3,4-19.8,2.4-30.1,2.4c-9.5,0-19.8,2.4-30.9-3.2c0.8-0.8,1.6-2.4,2.4-3.2c-0.8,0-1.6-0.8-2.4-0.8
	c6.3-11.1,16.6-17.4,22.2-28.5c-13.5,10.3-26.9,20.6-38.8,30.1c-13.5,3.2-15.8-7.9-21.4-11.9c0.8-0.8,0.8-2.4,1.6-3.2
	c-0.8-0.8-0.8-0.8-1.6-1.6c0.8-1.6,0.8-2.4,1.6-4c-5.5,1.6-10.3,3.2-15.8,4c-1.6-1.6-4-3.2-4.8-4c-4,1.6-7.9,3.2-11.1,4.8
	c-7.1-14.3-7.1-15-17.4-15.8c-7.9-0.8-13.5-3.2-19.8-7.9l0,0c-3.2-2.4-6.3-5.5-10.3-9.5c1.6,0,2.4,0.8,4,0.8l-22.2-16.6v7.1
	c-10.3,1.6-19,3.2-24.6-7.1c0.8-0.8,0.8-1.6,1.6-1.6c-0.8-0.8-0.8-1.6-1.6-2.4c0-0.8,0.8-0.8,0.8-1.6c0.8-1.6,1.6-3.2,3.2-4
	c-1.6-0.8-2.4-1.6-4-2.4c-3.2-1.6-6.3-4-7.9-6.3c-3.2-4-3.2-10.3-4-12.7c-4.8-3.2-7.1-4.8-10.3-6.3c0.8-0.8,1.6-1.6,2.4-3.2
	c-0.8-0.8-1.6-0.8-2.4-1.6c7.1-11.9,14.3-22.2,20.6-30.1c3.2-14.3-2.4-28.5,3.2-40.4c-1.6-3.2-2.4-6.3-4-9.5h-23.8
	c-5.5,7.9-11.1,15.8-14.3,20.6c-1.6,5.5-2.4,10.3-1.6,15c0.8,7.9,3.2,15.8,3.2,23c0.8,6.3,0.8,11.9-1.6,17.4c3.2,3.2,4,7.1,4,11.9
	c0.8,4.8,0,10.3-2.4,15.8c-4-1.6-7.1-3.2-9.5-4c-7.1,0.8-12.7,2.4-17.4,3.2c-3.2-8.7-6.3-15-8.7-21.4c-9.5,4.8-12.7,15.8-24.6,15.8
	v-4l0,0V80c-1.6,0.8-3.2,2.4-4.8,3.2c-1.6-4.8-2.4-8.7-4.8-15.8c-13.5,13.5-24.6,22.2-40.4,26.1c-7.9-11.1-21.4-16.6-25.3-30.9
	c-4.8-15.8-11.9-31.7-19-46.7c-4.8-11.1-4.8-11.1-20.6-9.5c-0.8,9.5,0.8,19.8-2.4,27.7c-3.2,6.3-4,13.5-4,19.8
	c0,2.4,0.8,5.5,1.6,7.9c4,12.7,7.1,28.5,24.6,34.1c6.3,1.6,11.9,7.9,19.8,12.7c-0.8,0.8-1.6,1.6-2.4,2.4c0.8,0.8,1.6,1.6,3.2,1.6
	c-7.9,7.1-13.5,12.7-19,17.4c-12.7-7.9-12.7-26.1-31.7-27.7c0,5.5,0,11.1,0,15c6.3,5.5,8.7,8.7,12.7,13.5c-0.8,0.8-1.6,0.8-2.4,1.6
	c0.8,0.8,1.6,1.6,2.4,3.2c-4,2.4-7.1,3.2-11.1,5.5c-0.8-7.1-1.6-11.9-2.4-19.8c-6.3-4-13.5-9.5-20.6-15.8c-1.6-1.6-4-2.4-7.1-3.2
	c-3.2,3.2-5.5,6.3-8.7,10.3c4.8,3.2,7.9,4.8,11.1,7.1c0,1.6,0,2.4,0,4l0,0c0,6.3,0,11.9,0,16.6c0,0.8,0,0.8,0,1.6
	c0,2.4,0.8,4.8,1.6,7.1c0.8,3.2,2.4,7.1,4,11.1h-14.3c-9.5-9.5-19.8-19.8-29.3-29.3c-0.8,0-1.6-0.8-1.6-0.8
	c-0.8,0.8-1.6,1.6-3.2,3.2c0.8,0.8,0.8,2.4,1.6,3.2c0.8-0.8,1.6-1.6,2.4-1.6c0,0,1.6,0,1.6,0.8c5.5,5.5,11.9,11.9,17.4,17.4
	c-1.6,0.8-2.4,0.8-4,1.6c0.8,0.8,1.6,1.6,2.4,2.4c-2.4,12.7-4,23-5.5,34.1c-15.8,0-15.8,20.6-29.3,24.6c1.6,1.6,3.2,3.2,4.8,5.5
	c-6.3,2.4-12.7,5.5-18.2,6.3c-6.3,1.6-13.5,0-20.6,0c-2.4,2.4-4.8,5.5-6.3,6.3c0,1.6,0.8,2.4,0.8,4c0.8,4,1.6,7.1,3.2,11.1H357
	c0,1.6,0.8,3.2,0.8,4c-8.7,0-19-2.4-25.3,6.3c-9.5-6.3-17.4-11.1-25.3-16.6c-21.4,4-41.2-11.1-63.4-3.2v3.2c11.1,6.3,26.9,4,35.6,19
	c-0.8,0.8-0.8,1.6-1.6,1.6c0.8,0.8,1.6,1.6,1.6,2.4c-2.4,2.4-3.2,4.8-4.8,5.5c3.2,9.5,5.5,18.2,8.7,26.1h44.4
	c11.9-13.5,19.8,0.8,27.7,2.4c-0.8,1.6-0.8,2.4-1.6,4c0.8,0,0.8,0,1.6,0c-4.8,14.3-8.7,26.9-13.5,41.2c-4,1.6-15,2.4-15.8,5.5
	c-1.6,11.9-11.9,11.1-18.2,12.7c-7.9,1.6-17.4-1.6-27.7-3.2c-7.1,2.4-15.8,6.3-23.8,8.7c-4.8-2.4-7.9-4.8-11.1-6.3
	c-3.2,3.2-6.3,6.3-7.9,7.9v10.3c20.6,2.4,39.6,4.8,57.8,7.1c5.5-5.5,7.9-7.9,11.9-11.9c6.3,0,13.5,0.8,20.6,0
	c5.5-0.8,11.1-3.2,17.4-5.5c0.8,1.6,0.8,3.2,1.6,4.8c-0.8,0-0.8,0-0.8,0.8c0.8,1.6,0.8,2.4,1.6,4c-7.9,4-16.6,7.1-23.8,10.3
	c-4-1.6-6.3-3.2-7.9-4c-4.8,5.5-7.9,9.5-11.9,13.5c2.4,2.4,4.8,4.8,7.9,7.9c6.3,0.8,12.7,1.6,17.4,1.6v3.2l0,0v16.6
	c-5.5-2.4-8.7-4.8-10.3-5.5c-9.5,4-19,7.1-29.3,11.1c0.8,1.6,0.8,2.4,1.6,4c12.7-0.8,20.6-15,38-7.1c-1.6,0.8-4,1.6-5.5,2.4
	c1.6,0,4,0.8,5.5,2.4c-12.7,4.8-21.4,11.1-30.1,11.1c-19,0.8-34.1,11.1-48.3,21.4c-0.8,0.8-1.6,2.4-2.4,4c5.5,4.8,10.3,9.5,16.6,15
	c4-5.5,7.1-9.5,9.5-14.3c9.5,11.1,20.6,4.8,30.1,6.3c1.6,5.5,3.2,10.3,5.5,16.6c20.6-13.5,21.4-36.4,32.5-53.1
	c7.1,4.8,13.5,8.7,19,12.7c0,1.6,0,3.2,0,4l0,0c0.8,11.1-0.8,17.4-11.1,19c-3.2,0.8-5.5,1.6-10.3,2.4c6.3,6.3,11.9,11.9,16.6,16.6
	c-0.8,0.8-1.6,1.6-2.4,2.4l2.4,2.4c-6.3,6.3-12.7,12.7-19,18.2c1.6,1.6,3.2,4,5.5,5.5c6.3-4.8,12.7-9.5,19.8-14.3
	c0.8-0.8,2.4,0.8,3.2,0.8v4l0,0v11.9c-4,1.6-7.1,2.4-9.5,3.2v9.5c11.9,1.6,14.3-7.9,17.4-14.3h28.5v11.9c-5.5,4-11.1,8.7-17.4,12.7
	c0.8,0.8,0.8,2.4,1.6,3.2c4.8-4,9.5-7.1,14.3-11.1v25.3c7.9-1.6,15-2.4,23-4c-9.5-13.5-15-29.3-15-46.7V338.2h117.2
	c-11.9,16.6-19,37.2-19,60.2c0,57,45.9,103.8,103.8,103.8s103-45.9,103-103.8c0-22.2-7.1-42.8-19-60.2h118v181.4
	c0,44.4-35.6,80-80,80H490c-14.3,0-26.9-4-38.8-10.3c1.6,4,4,7.9,5.5,11.1h20.6c-2.4,10.3-4,18.2-6.3,29.3c0,0,0.8,0,1.6,0
	c11.1,2.4,23,5.5,34.8,8.7v4l0,0v36.4c-3.2,10.3-15.8,17.4-16.6,28.5l0,0c0,1.6,0.8,2.4,1.6,4c6.3,7.9,13.5,15,19.8,23
	c0,0.8-0.8,1.6-1.6,2.4c0.8,0.8,0.8,1.6,1.6,1.6c-2.4,4.8-4.8,10.3-7.9,15.8c-7.9,0.8-17.4-3.2-23.8,9.5c0,1.6,0,3.2,0,4.8l0,0
	c0,1.6,0,2.4,0,4l0,0c0,0.8,0,1.6,0,2.4c7.9,0,14.3,0,20.6,0c0-4.8,0-9.5,0-15c3.2,5.5,4,7.9,3.2,10.3c1.6,4,0,4.8-3.2,9.5
	c0,0.8,0,2.4,0,3.2c0.8,2.4,3.2,4,9.5,1.6v-16.6c9.5-8.7,18.2-15.8,26.9-23.8c0-3.2,0-6.3,0.8-10.3c4,0,6.3,0,10.3,0.8
	c-0.8,1.6-1.6,3.2-2.4,4c0.8,0,1.6,0,3.2,0c-3.2,4.8-5.5,8.7-7.9,11.9c-0.8-0.8-1.6-0.8-1.6-1.6c0.8,2.4,0.8,5.5,1.6,10.3
	c6.3-7.9,10.3-11.9,12.7-16.6c4-11.1,11.1-18.2,19-26.1l0,0c-3.2-2.4-6.3-4-8.7-6.3c-4,2.4-5.5,4-9.5,7.1V712l0,0v-24.6
	c-9.5-12.7-28.5-14.3-30.1-32.5c0,0,0,0,0.8,0c-0.8-1.6-0.8-2.4-0.8-4c3.2-0.8,6.3-2.4,9.5-3.2v15.8h133.1c2.4,2.4,4.8,4,7.1,6.3
	c-0.8,0.8-1.6,1.6-1.6,2.4c0.8,0.8,1.6,1.6,2.4,2.4c-3.2,4-6.3,7.9-9.5,10.3c1.6,5.5,3.2,10.3,4.8,15.8c13.5-6.3,15-7.1,43.6-4.8
	c3.2,4.8,6.3,10.3,10.3,15.8c6.3-2.4,11.1-4.8,15-5.5c13.5,4.8,25.3,8.7,38,12.7c0,8.7,8.7,11.9,15,19.8c0.8-10.3,1.6-16.6,1.6-23.8
	c4,3.2,6.3,4.8,11.1,8.7c4-5.5,6.3-10.3,8.7-15c3.2-4.8,5.5-9.5,8.7-16.6c-2.4-1.6-6.3-4-8.7-5.5v-4l0,0c0-11.1,0-20.6,0-30.1
	c0-1.6,3.2-2.4,4.8-4c-1.6-9.5,4-13.5,11.9-15.8c2.4,2.4,4,4,6.3,5.5c0,0,0.8-0.8,3.2-2.4l0,0c-0.8-15.8-15-25.3-21.4-38
	c4-11.9,7.1-22.2,10.3-32.5c8.7,0,14.3,0,19-1.6l0,0l0,0c1.6-2.4,4-4.8,7.1-7.1c0.8-0.8,2.4-1.6,4-2.4c0,2.4,0,4.8,0.8,7.1
	c0,0.8,0,1.6,0,2.4v0.8c0,1.6,0,3.2,0,4c-1.6,0-3.2,0-4.8,0c-2.4,0-4,0-5.5,0.8c-0.8-0.8-0.8-1.6-1.6-1.6c0,4-1.6,7.1-3.2,10.3
	c3.2,7.1,9.5,8.7,17.4,7.9c4-4,7.9-7.9,14.3-13.5c9.5,7.9,23.8,7.9,26.1,23c9.5,2.4,19,4.8,29.3,7.1v-13.5
	c-10.3-10.3-22.2-22.2-34.1-34.1c0.8,0,1.6-0.8,3.2-1.6c-0.8-0.8-2.4-2.4-3.2-3.2c2.4-0.8,4.8-1.6,8.7-3.2v-7.9
	C890,529.1,873.4,518,867,498.2l0.8-0.8c-0.8-0.8-0.8-2.4-1.6-3.2c3.2-2.4,6.3-5.5,8.7-7.1c4.8,3.2,8.7,4.8,9.5,5.5
	c17.4-3.2,9.5-16.6,13.5-25.3c11.9,3.2,22.2,6.3,33.3,9.5c-0.8-1.6-1.6-3.2-3.2-5.5h1.6c-0.8-1.6-1.6-2.4-2.4-4h7.1
	c-15-15.8-38.8-19-53.9-34.1v-4l0,0v-16.6c5.5-7.1,11.1-10.3,21.4-5.5c0,0.8-0.8,2.4-1.6,3.2c0.8,0,0.8,0.8,1.6,0.8
	c-1.6,4-3.2,8.7-4.8,12.7h19c0-3.2,0-4.8,0-7.1c-0.8-3.2-1.6-5.5-4.8-11.1c0.8,0,0.8-0.8,1.6-1.6c-0.8-0.8-0.8-1.6-1.6-3.2
	c3.2-3.2,4.8-5.5,5.5-8.7c-0.8-3.2-2.4-5.5-4.8-7.9c0.8-0.8,1.6-0.8,2.4-1.6c-0.8-0.8-1.6-2.4-2.4-3.2c14.3-7.9,28.5-15,43.6-23.8
	c1.6,3.2,2.4,5.5,4,9.5c4,2.4,10.3,4.8,15.8,7.9c3.2-3.2,5.5-6.3,8.7-10.3C977.1,359.6,968.4,353.2,959.7,347.7z M517.8,75.2h5.5
	v1.6h-5.5V75.2z M523.3,81.6h-5.5v-2.4h5.5V81.6z M312.6,469.7c0.8,0.8,0.8,0.8,1.6,1.6c-1.6,0.8-2.4,2.4-4,4l-0.8-0.8
	C310.2,472.8,311,471.2,312.6,469.7z M310.2,479.2C309.5,479.2,309.5,478.4,310.2,479.2c0-2.4,1.6-4,2.4-5.5l1.6,1.6
	C312.6,476.8,311.8,478.4,310.2,479.2z M361.7,255c1.6,0.8,3.2,2.4,4.8,3.2l-1.6,1.6C363.3,259,362.5,257.4,361.7,255
	C360.9,255.8,361.7,255.8,361.7,255z M364.9,264.5c-1.6-1.6-2.4-3.2-4-4l0.8-0.8c1.6,0.8,3.2,2.4,4.8,3.2L364.9,264.5z M612,477.6
	c-43.6,0-80-35.6-80-80c0-23.8,10.3-45.1,26.9-60.2c5.5-4.8,12.7-9.5,19.8-12.7c10.3-4.8,21.4-7.1,33.3-7.1c11.9,0,23,2.4,33.3,7.1
	c7.1,3.2,13.5,7.9,19.8,12.7c16.6,14.3,26.9,35.6,26.9,60.2C691.2,441.9,655.6,477.6,612,477.6z M814,325.5H685.7
	c-19-19-45.1-30.9-73.7-30.9s-54.6,11.9-73.7,30.9H410v-52.3c0-26.9,13.5-50.7,34.1-64.9v86.3h16.6v-95c4-1.6,7.9-2.4,11.9-4v98.2
	h16.6V193.2h11.1v100.6H517V193.2h218.6c44.4,0,80,35.6,80,80v52.3H814z M871.8,552c-0.8,0-1.6,0-2.4,0c0.8,0.8,1.6,2.4,3.2,4
	c-3.2,0-6.3,0-9.5,0.8c0-1.6,0-3.2,0-4c0-1.6,0-4,0-5.5l0,0l0,0l0,0c0-0.8,0-0.8,0-1.6l0,0c-0.8-0.8-1.6-2.4-2.4-3.2
	c-0.8,0.8-0.8,0.8-1.6,1.6v-4l0,0l1.6-1.6c0.8,0.8,1.6,1.6,2.4,3.2c0.8,0,1.6,0,3.2-0.8c-0.8,0.8-1.6,1.6-2.4,1.6l0,0l-0.8,0.8l0,0
	C866.2,543.3,868.6,547.3,871.8,552z M764.9,226.5h-43.6c-7.1,0-12.7,5.5-12.7,12.7v44.4c0,7.1,5.5,12.7,12.7,12.7h43.6
	c7.1,0,12.7-5.5,12.7-12.7v-44.4C777.5,232.1,772,226.5,764.9,226.5z M612,339c-32.5,0-58.6,26.1-58.6,58.6s26.1,58.6,58.6,58.6
	s58.6-26.1,58.6-58.6S644.5,339,612,339z M764.9,226.5h-43.6c-7.1,0-12.7,5.5-12.7,12.7v44.4c0,7.1,5.5,12.7,12.7,12.7h43.6
	c7.1,0,12.7-5.5,12.7-12.7v-44.4C777.5,232.1,772,226.5,764.9,226.5z M764.9,226.5h-43.6c-7.1,0-12.7,5.5-12.7,12.7v44.4
	c0,7.1,5.5,12.7,12.7,12.7h43.6c7.1,0,12.7-5.5,12.7-12.7v-44.4C777.5,232.1,772,226.5,764.9,226.5z"/>
</svg>
