<?xml version="1.0" encoding="utf-8"?>
<!-- Generator: Adobe Illustrator 18.1.0, SVG Export Plug-In . SVG Version: 6.00 Build 0)  -->
<svg version="1.1" id="Layer_1" xmlns="http://www.w3.org/2000/svg" xmlns:xlink="http://www.w3.org/1999/xlink" x="0px" y="0px"
	 viewBox="0 0 100 100" enable-background="new 0 0 100 100" xml:space="preserve">
<path d="M93.8,43.6c-1,0.8-1.6,2.1-3.1,1.2c0.2-0.4,0.4-0.8,0.6-1.2c-0.8-0.5-1.4-1-1.9-1.4c0.2-0.5,0.3-0.7,0.5-1
	c-1.2-0.1-2.1-0.2-3.1-0.3c-0.4-0.1-0.8-0.3-1.7-0.7c1.4-1.2,2.1-1.8,2.9-2.5v-1c-1.6-1.2-2.8-2.7-3.1-4.5c0.2-0.6,0.4-0.9,0.6-1.3
	c-0.5-0.3-1-0.5-1.7-0.8c1.9-0.3,3.6-0.4,5.2-0.9c1.5-0.5,2.8-1.6,4.5-2.5c-0.2-0.5-0.5-1.3-0.7-1.8c-1.5-0.3-2.9-0.9-3.9-0.6
	c-1.3,0.5-2.5,0.3-3.8,0.3c-1.2,0-2.5,0.3-3.9-0.4c1-1.7,2.6-2.6,3.1-4.4c-1.8,1.4-3.6,2.8-5.3,4.1c-1.7,0.4-2-1-2.7-1.5
	c0.2-0.5,0.4-0.8,0.5-1.1c-0.8,0.2-1.6,0.4-2.3,0.6c-0.2-0.2-0.5-0.4-0.6-0.5c-0.5,0.2-1,0.4-1.4,0.6c-0.9-1.8-0.9-1.9-2.2-2
	c-1.4-0.1-2.4-0.7-3.8-2.2c2.9,0.6,4.4-1.4,6.3-1.7c2.5-0.4,3.7-2.3,5.4-3.7v-1.7h-1.6c-1.5,1.5-3.1,3.1-4.6,4.6c-0.6,0-1.1,0-1.6,0
	c-0.1,0.2-0.3,0.4-0.4,0.6c-0.1-0.1-0.1-0.1-0.2-0.2c0.2-0.2,0.4-0.3,0.5-0.5c0,0,0.1,0.1,0.1,0.1c0-0.6,0-1.1,0-1.7
	c-0.9-0.4-1.8-0.9-2.6-1.3c0-0.6-0.1-1.1-0.1-1.7c-1.4,0.8-1.3,3-3.3,2.9v3c-1.3,0.2-2.4,0.4-3.1-0.9c0.2-0.4,0.5-0.7,0.7-1.1
	c-0.7-0.5-1.4-0.8-1.8-1.3s-0.4-1.3-0.5-1.6c-0.6-0.4-0.9-0.6-1.3-0.8c1-1.4,1.9-2.7,2.7-3.8c0.4-1.9-0.3-3.7,0.5-5.3
	c-0.2-0.6-0.4-1-0.6-1.6h-3c-0.7,1-1.4,2-1.8,2.6c-0.9,2.8,1,5.1-0.2,7.4c0.9,0.8,0.8,1.9,0.4,3.1c-0.5-0.2-0.9-0.4-1.2-0.5
	c-0.9,0.2-1.6,0.3-2.2,0.4c-0.4-1.1-0.8-1.9-1.1-2.7c-1.2,0.6-1.6,2.1-3.1,2v-3c-0.2,0.1-0.4,0.3-0.6,0.5c-0.2-0.6-0.3-1.1-0.6-2
	c-1.7,1.7-3.1,2.8-5.1,3.3c-1-1.4-2.7-2.1-3.2-3.9c-0.6-2-1.5-4-2.4-5.9c-0.6-1.4-0.6-1.4-2.6-1.2c-0.1,1.2,0.1,2.5-0.3,3.5
	c-0.7,1.4-0.7,2.9-0.3,4.1c0.5,1.6,0.9,3.6,3,4.3c0.8,0.2,1.5,1,2.5,1.6c-1,0.9-1.7,1.6-2.4,2.2c-1.6-1-1.6-3.3-4-3.5
	c0,1,0,1.8-0.1,2.4c0.8,0.7,1.2,1.2,1.7,1.8c-0.5,0.3-0.9,0.4-1.4,0.7c-0.1-0.9-0.2-1.5-0.3-2.5c-0.8-0.5-1.7-1.2-2.6-2
	c-0.2-0.2-0.5-0.3-0.9-0.4c-0.4,0.5-0.8,1-1.4,1.6c0.7,0.5,1.3,0.8,1.7,1.1c0,1.2-0.1,2,0,2.9c0,0.1,0,0.2,0.1,0.4
	c3.9,0.1,6.9,3.3,6.9,7.2c0,4-3.2,7.2-7.2,7.2c-3,0-5.7-1.9-6.7-4.6c-0.8,0.3-1.4,0.7-2.1,0.8c-0.9,0.2-1.7,0-2.6,0
	c-0.3,0.3-0.6,0.6-0.8,0.8c0.2,0.7,0.3,1.3,0.5,1.8c-1.1,0-2.4-0.3-3.2,0.8c-1.2-0.8-2.2-1.4-3.2-2.1c-2.7,0.5-5.2-1.4-8-0.4V31
	c1.6,0.6,3.6,0.3,4.7,2.2c-0.3,0.4-0.5,0.7-0.7,0.9c0.4,1.3,0.8,2.6,1.2,3.7H14c1.5-1.7,2.5,0.1,3.5,0.3c-0.6,1.8-1.1,3.4-1.7,5.2
	c-0.5,0.2-1.9,0.3-2,0.7c-0.2,1.5-1.5,1.5-2.3,1.6c-1,0.2-2.2-0.2-3.5-0.4c-0.9,0.3-2,0.8-3,1.1c-0.6-0.3-1-0.6-1.4-0.8
	c-0.4,0.4-0.8,0.8-1,1v1.7c2.6,0.3,5.1,0.6,7.3,0.9c0.7-0.7,1-1.1,1.5-1.5c0.9,0,1.7,0.1,2.6,0c0.7-0.1,1.5-0.4,2.2-0.7
	c0.1,0.2,0.1,0.4,0.2,0.6c-1,0.5-2.1,0.9-3,1.3c-0.5-0.2-0.8-0.4-1-0.5c-0.7,0.8-1.2,1.4-1.7,2c0.3,0.3,0.8,0.8,1.2,1.2
	c0.8,0.1,1.6,0.2,2.3,0.2v2.1c-0.7-0.3-1.1-0.6-1.3-0.7c-1.3,0.5-2.5,1-3.9,1.5c0.1,0.3,0.2,0.7,0.4,1c1.6-0.1,2.6-1.9,4.8-0.9
	c-1.6,0.6-2.7,1.4-3.8,1.4c-2.4,0.1-4.3,1.4-6.1,2.7c-0.2,0.2-0.3,0.5-0.5,0.9c0.7,0.7,1.4,1.3,2.3,2c0.5-0.7,0.9-1.2,1.2-1.8
	c1.2,1.4,2.6,0.6,3.8,0.8c0.2,0.7,0.4,1.3,0.7,2.1c2.6-1.7,2.7-4.6,4.1-6.7c0.9,0.6,1.7,1.1,2.4,1.6c0.1,1.4-0.1,2.2-1.4,2.4
	c-0.4,0.1-0.9,0.2-1.7,0.4c1.1,1.1,1.8,1.8,2.5,2.5c-0.9,0.9-1.8,1.8-2.6,2.6c0.3,0.3,0.6,0.6,1,1c0.8-0.6,1.6-1.2,2.5-1.8
	c0.1-0.1,0.3,0.1,0.4,0.1v1.5c-0.5,0.2-0.9,0.3-1.2,0.4v1.7c1.5,0.2,1.8-1,2.3-1.8h3.5V38.2h12.1v39.1h-2.8
	c-0.2,0.8-0.3,1.6-0.5,2.5c1.5,0.3,3,0.7,4.6,1.1v4.6c-0.5,1.6-2.8,2.5-1.9,4.7c0.8,1,1.7,1.9,2.5,2.9c-0.3,0.6-0.6,1.3-1,2
	c-1,0.1-2.2-0.4-3,1.2c0,0.5,0.1,1.3,0.1,2.1c1,0,1.8,0,2.6,0c0-0.6,0-1.2,0-1.9c0.6,1.1,0.6,1.1,0,1.9c0,0.8-0.2,1.7,1.2,1.2v-2.1
	c1.2-1.1,2.3-2,3.4-3c0-0.4,0.1-0.8,0.1-1.3c0.5,0,0.8,0,1.2,0.1c-0.4,0.6-0.7,1.1-1,1.5c-0.1-0.1-0.2-0.2-0.3-0.3
	c0.1,0.5,0.2,0.9,0.4,2c0.8-1,1.4-1.5,1.6-2.1C43,92.9,44,91.9,45,91c0.1-0.1,0-0.3,0.1-0.5c-0.4-0.3-0.8-0.6-1.2-0.8
	c-0.5,0.3-0.7,0.5-1.2,0.9v-3.6c-1.2-1.6-3.6-1.8-3.8-4.1c0.9-0.3,1.8-0.6,3.1-1c0.5,0.7,1.1,1.5,1.5,2c1.3,0.4,1.9-0.3,2.5-0.9
	c0.1-0.1,0.3-0.1,0.4-0.2c0.2,0.4,0.3,0.8,0.4,1.1h2.3c0.4-0.7,0.8-1.3,1.2-1.9c1,0.1,1.8,1.4,2.8,0.4c0.1-0.4,0.1-0.7,0.2-1
	c1.5,1.4,3,2.7,4.6,4c-0.5,0.5-0.9,1.1-1.2,1.5c0.3,0.9,0.5,1.6,0.8,2.4c1.6-0.8,1.9-0.9,5.5-0.6c0.4,0.6,0.8,1.3,1.3,2
	c0.8-0.3,1.4-0.6,1.9-0.7c1.7,0.6,3.2,1.1,4.8,1.6c0,1.1,1.1,1.5,1.9,2.5c0.1-1.3,0.2-2.1,0.2-3c0.5,0.4,0.8,0.6,1.3,1.1
	c0.5-0.7,0.8-1.3,1.2-1.9c0.4-0.7,0.8-1.4,1.3-2.5c-0.3-0.2-0.9-0.5-1.3-0.8c0-1.4,0-2.6,0-3.8c0-0.2,0.4-0.3,0.6-0.5
	c-0.2-1.2,0.5-1.7,1.5-2c0.3,0.3,0.5,0.5,0.8,0.7c0,0,0.2-0.1,0.4-0.3c-0.1-1.4-1-2.5-1.8-3.5h-8.2c0,0,0-14.9,0-20.5
	S66.6,48,62.2,48c-4.8,0-7.4,3.3-7.4,8.8c0,6,0,20.5,0,20.5H43.2V38.2h11.6v5.3c0,0,3.5-6.5,11.8-6.5c8.3,0,14.2,5.1,14.2,15.5v15.8
	c0.1-0.1,0.1-0.1,0.2-0.2c0.1,0.1,0.2,0.3,0.3,0.4c0.1,0,0.2-0.1,0.4-0.1c-0.1,0.1-0.2,0.2-0.3,0.3l0,0l-0.1,0.1c0,0,0,0,0,0
	c0.7,0.1,1,0.5,1.3,1.1c-0.4,0-0.8,0-1.2,0.1c0-0.5-0.1-0.9-0.1-1.2c0,0,0,0,0,0l0,0v0c0,0,0,0,0.1-0.1c0,0-0.1-0.1-0.1-0.1
	c-0.3,0-0.4-0.1-0.5-0.2V71c0.2-0.1,0.3-0.2,0.5-0.3c0,0.4,0.1,0.8,0.1,1.2c-0.2,0-0.4,0-0.6,0c-0.3,0-0.5,0-0.7,0.1
	c-0.1-0.1-0.1-0.2-0.2-0.2c-0.1,0.6-0.3,1.1-0.5,1.5c0.3,0.8,0.8,1.2,1.4,1.3c0.3,0,0.6,0,0.9,0c0.5-0.5,1-1,1.8-1.7
	c1.3,1,3.1,1,3.4,2.9c1.2,0.3,2.4,0.6,3.7,0.9v-2.2c-1.3-1.3-2.8-2.8-4.3-4.3c0.3-0.1,0.6-0.2,1.1-0.4v-1.6
	c-2.1-1.3-4.2-2.7-5.1-5.2c0.4-0.3,0.8-0.7,1.1-0.9c0.6,0.4,1.1,0.6,1.2,0.7c2.2-0.4,1.2-2.1,1.7-3.2c1.5,0.5,3,0.9,4.4,1.3
	c-0.2-0.4-0.4-0.8-0.7-1.3h1.3C89.4,57,86,56.7,84,54.7v-2.1c0.7-0.9,1.4-1.3,2.7-0.7c-0.2,0.7-0.5,1.4-0.8,2.2h2.7
	c0-1.6,0-1.6-0.6-2.8c1-0.9,0.8-1.8,0-2.7c1.8-1,3.6-1.9,5.5-3c0.2,0.4,0.3,0.7,0.5,1.2c0.6,0.3,1.3,0.6,2,1c0.5-0.5,0.9-1,1.3-1.6
	C96.1,45.2,94.9,44.4,93.8,43.6z M38.6,10H38V9.8h0.7V10z M11.7,60.2C11.7,60.2,11.7,60.1,11.7,60.2c0-0.3,0.2-0.5,0.3-0.7
	c0.1,0.1,0.1,0.1,0.2,0.2C12.1,59.9,11.9,60.1,11.7,60.2z M18.6,33.1c-0.2-0.2-0.3-0.4-0.5-0.5c0,0,0.1-0.1,0.1-0.1
	c0.2,0.1,0.4,0.3,0.6,0.4L18.6,33.1z M26,19.5c0.3-0.2,0.6-0.3,0.9-0.4c-0.7-0.7-1.5-1.5-2.2-2.2c0,0-0.2-0.1-0.2-0.1
	c-0.1,0-0.2,0.2-0.4,0.4C24.4,18.2,25.3,18.9,26,19.5z M22.4,27.6c0,0-0.1,0-0.1,0c0.1,0.1,0.1,0.1,0.2,0.2
	C22.4,27.8,22.4,27.7,22.4,27.6z M21.3,69.9c0.4,1.1,0.8,1.9,1,2.5c0.3-0.1,0.7-0.1,1-0.2v-3.8C22.7,68.9,22,69.4,21.3,69.9z"/>
<path id="linkedin-icon" fill="#FFFFFF" d="M29.5,18.7c-0.1,0-0.1,0-0.2,0c-0.9,0-1.7,0.2-2.5,0.5c0.5,0.5,1,1,1.5,1.5h1.8
	C30,19.9,29.7,19.3,29.5,18.7z M22.6,28.5c0.1,0,0.1,0,0.2-0.1c-0.1-0.2-0.3-0.4-0.4-0.5C22.5,28.1,22.6,28.3,22.6,28.5z M23.3,66.9
	v1.5c0.1,0,0.1-0.1,0.2-0.1v-1.4H23.3z M80.8,68.3L80.8,68.3C80.8,68.3,80.8,68.3,80.8,68.3L80.8,68.3z M79.9,71.8
	C79.3,72,78.5,72,77.5,72c-0.4,1.2-0.8,2.6-1.3,4.1c0.2,0.4,0.5,0.9,0.9,1.3h3.8c0,0,0-1,0-2.7V71C80.4,71.3,80.1,71.5,79.9,71.8z"
	/>
</svg>
