<?xml version="1.0" encoding="utf-8"?>
<!-- Generator: Adobe Illustrator 18.1.0, SVG Export Plug-In . SVG Version: 6.00 Build 0)  -->
<svg version="1.1" id="Layer_1" xmlns="http://www.w3.org/2000/svg" xmlns:xlink="http://www.w3.org/1999/xlink" x="0px" y="0px"
	 viewBox="0 0 100 100" enable-background="new 0 0 100 100" xml:space="preserve">
<path d="M50,42.8c-4.1,0-7.4,3.3-7.4,7.4c0,4.1,3.3,7.4,7.4,7.4c4.1,0,7.4-3.3,7.4-7.4C57.4,46.1,54.1,42.8,50,42.8z M69.3,28.6
	h-5.5c-0.9,0-1.6,0.7-1.6,1.6v5.6c0,0.9,0.7,1.6,1.6,1.6h5.5c0.9,0,1.6-0.7,1.6-1.6v-5.6C70.9,29.3,70.2,28.6,69.3,28.6z M69.3,28.6
	h-5.5c-0.9,0-1.6,0.7-1.6,1.6v5.6c0,0.9,0.7,1.6,1.6,1.6h5.5c0.9,0,1.6-0.7,1.6-1.6v-5.6C70.9,29.3,70.2,28.6,69.3,28.6z M50,42.8
	c-4.1,0-7.4,3.3-7.4,7.4c0,4.1,3.3,7.4,7.4,7.4c4.1,0,7.4-3.3,7.4-7.4C57.4,46.1,54.1,42.8,50,42.8z M93.9,43.9
	c-1,0.8-1.6,2.1-3.1,1.2c0.1-0.1,0.2-0.3,0.2-0.4c-0.1,0-0.2-0.1-0.3-0.1c0.1-0.3,0.3-0.6,0.4-0.9c-0.6-0.5-1.2-0.9-1.7-1.2
	c0.1-0.2,0.1-0.3,0.2-0.4l-0.2-0.2c0.1-0.2,0.2-0.3,0.2-0.4c-1-0.1-1.9-0.1-2.8-0.3c-0.4-0.1-0.8-0.3-1.7-0.7
	c0.1-0.1,0.3-0.2,0.4-0.4c-0.1-0.1-0.3-0.1-0.4-0.2c1.4-1.2,2.1-1.8,2.9-2.4V37c-1.6-1.2-2.8-2.6-3-4.5c0,0,0-0.1,0-0.1
	c0-0.1-0.1-0.3-0.1-0.4c0.2-0.3,0.3-0.6,0.4-0.9c-0.5-0.2-0.9-0.4-1.5-0.7c0.3,0,0.6-0.1,0.9-0.1c-0.3-0.1-0.5-0.2-0.9-0.4
	c1.9-0.3,3.6-0.4,5.2-0.9c1.5-0.5,2.7-1.5,4.3-2.4c-0.2-0.5-0.4-1-0.5-1.3c-1.5-0.3-2.9-0.9-3.9-0.6c-1.3,0.5-2.5,0.3-3.8,0.3
	c-1.2,0-2.5,0.3-3.9-0.4c0.1-0.1,0.2-0.3,0.3-0.4c-0.1,0-0.2-0.1-0.3-0.1c0.8-1.4,2.1-2.2,2.8-3.6c-1.7,1.3-3.4,2.6-4.9,3.8
	c-1.7,0.4-2-1-2.7-1.5c0.1-0.1,0.1-0.3,0.2-0.4c-0.1-0.1-0.1-0.1-0.2-0.2c0.1-0.2,0.1-0.3,0.2-0.5c-0.7,0.2-1.3,0.4-2,0.5
	c-0.2-0.2-0.5-0.4-0.6-0.5c-0.5,0.2-1,0.4-1.4,0.6c-0.9-1.8-0.9-1.9-2.2-2c-1-0.1-1.7-0.4-2.5-1c0,0,0,0,0,0
	c-0.4-0.3-0.8-0.7-1.3-1.2c0.2,0,0.3,0.1,0.5,0.1l-2.8-2.1V17c-1.3,0.2-2.4,0.4-3.1-0.9c0.1-0.1,0.1-0.2,0.2-0.2
	c-0.1-0.1-0.1-0.2-0.2-0.3c0-0.1,0.1-0.1,0.1-0.2c0.1-0.2,0.2-0.4,0.4-0.5c-0.2-0.1-0.3-0.2-0.5-0.3c-0.4-0.2-0.8-0.5-1-0.8
	c-0.4-0.5-0.4-1.3-0.5-1.6c-0.6-0.4-0.9-0.6-1.3-0.8c0.1-0.1,0.2-0.2,0.3-0.4c-0.1-0.1-0.2-0.1-0.3-0.2C59.3,9.3,60.2,8,61,7
	c0.4-1.8-0.3-3.6,0.4-5.1c-0.2-0.4-0.3-0.8-0.5-1.2h-3c-0.7,1-1.4,2-1.8,2.6c-0.2,0.7-0.3,1.3-0.2,1.9c0.1,1,0.4,2,0.4,2.9
	c0.1,0.8,0.1,1.5-0.2,2.2c0.4,0.4,0.5,0.9,0.5,1.5c0.1,0.6,0,1.3-0.3,2c-0.5-0.2-0.9-0.4-1.2-0.5c-0.9,0.1-1.6,0.3-2.2,0.4
	c-0.4-1.1-0.8-1.9-1.1-2.7c-1.2,0.6-1.6,2-3.1,2v-0.5h0v-2.4c-0.2,0.1-0.4,0.3-0.6,0.4c-0.2-0.6-0.3-1.1-0.6-2
	c-1.7,1.7-3.1,2.8-5.1,3.3c-1-1.4-2.7-2.1-3.2-3.9c-0.6-2-1.5-4-2.4-5.9c-0.6-1.4-0.6-1.4-2.6-1.2c-0.1,1.2,0.1,2.5-0.3,3.5
	c-0.4,0.8-0.5,1.7-0.5,2.5c0,0.3,0.1,0.7,0.2,1c0.5,1.6,0.9,3.6,3.1,4.3c0.8,0.2,1.5,1,2.5,1.6c-0.1,0.1-0.2,0.2-0.3,0.3
	c0.1,0.1,0.2,0.2,0.4,0.2c-1,0.9-1.7,1.6-2.4,2.2c-1.6-1-1.6-3.3-4-3.5c0,0.7,0,1.4,0,1.9c0.8,0.7,1.1,1.1,1.6,1.7
	c-0.1,0.1-0.2,0.1-0.3,0.2c0.1,0.1,0.2,0.2,0.3,0.4c-0.5,0.3-0.9,0.4-1.4,0.7c-0.1-0.9-0.2-1.5-0.3-2.5c-0.8-0.5-1.7-1.2-2.6-2
	c-0.2-0.2-0.5-0.3-0.9-0.4c-0.4,0.4-0.7,0.8-1.1,1.3c0.6,0.4,1,0.6,1.4,0.9c0,0.2,0,0.3,0,0.5c0,0,0,0,0,0c0,0.8,0,1.5,0,2.1
	c0,0.1,0,0.1,0,0.2c0,0.3,0.1,0.6,0.2,0.9c0.1,0.4,0.3,0.9,0.5,1.4h-1.8c-1.2-1.2-2.5-2.5-3.7-3.7c-0.1,0-0.2-0.1-0.2-0.1
	c-0.1,0.1-0.2,0.2-0.4,0.4c0.1,0.1,0.1,0.3,0.2,0.4c0.1-0.1,0.2-0.2,0.3-0.2c0,0,0.2,0,0.2,0.1c0.7,0.7,1.5,1.5,2.2,2.2
	c-0.2,0.1-0.3,0.1-0.5,0.2c0.1,0.1,0.2,0.2,0.3,0.3c-0.3,1.6-0.5,2.9-0.7,4.3c-2,0-2,2.6-3.7,3.1c0.2,0.2,0.4,0.4,0.6,0.7
	c-0.8,0.3-1.6,0.7-2.3,0.8c-0.8,0.2-1.7,0-2.6,0c-0.3,0.3-0.6,0.7-0.8,0.8c0,0.2,0.1,0.3,0.1,0.5c0.1,0.5,0.2,0.9,0.4,1.4h-0.1
	c0,0.2,0.1,0.4,0.1,0.5c-1.1,0-2.4-0.3-3.2,0.8c-1.2-0.8-2.2-1.4-3.2-2.1c-2.7,0.5-5.2-1.4-8-0.4v0.4C4.9,31.4,6.9,31.1,8,33
	c-0.1,0.1-0.1,0.2-0.2,0.2C7.9,33.3,8,33.4,8,33.5c-0.3,0.3-0.4,0.6-0.6,0.7c0.4,1.2,0.7,2.3,1.1,3.3h5.6c1.5-1.7,2.5,0.1,3.5,0.3
	c-0.1,0.2-0.1,0.3-0.2,0.5c0.1,0,0.1,0,0.2,0c-0.6,1.8-1.1,3.4-1.7,5.2c-0.5,0.2-1.9,0.3-2,0.7c-0.2,1.5-1.5,1.4-2.3,1.6
	c-1,0.2-2.2-0.2-3.5-0.4c-0.9,0.3-2,0.8-3,1.1c-0.6-0.3-1-0.6-1.4-0.8c-0.4,0.4-0.8,0.8-1,1V48c2.6,0.3,5,0.6,7.3,0.9
	c0.7-0.7,1-1,1.5-1.5c0.8,0,1.7,0.1,2.6,0c0.7-0.1,1.4-0.4,2.2-0.7c0.1,0.2,0.1,0.4,0.2,0.6c-0.1,0-0.1,0-0.1,0.1
	c0.1,0.2,0.1,0.3,0.2,0.5c-1,0.5-2.1,0.9-3,1.3c-0.5-0.2-0.8-0.4-1-0.5c-0.6,0.7-1,1.2-1.5,1.7c0.3,0.3,0.6,0.6,1,1
	c0.8,0.1,1.6,0.2,2.2,0.2V52h0v2.1c-0.7-0.3-1.1-0.6-1.3-0.7c-1.2,0.5-2.4,0.9-3.7,1.4c0.1,0.2,0.1,0.3,0.2,0.5
	c1.6-0.1,2.6-1.9,4.8-0.9c-0.2,0.1-0.5,0.2-0.7,0.3c0.2,0,0.5,0.1,0.7,0.3c-1.6,0.6-2.7,1.4-3.8,1.4c-2.4,0.1-4.3,1.4-6.1,2.7
	c-0.1,0.1-0.2,0.3-0.3,0.5c0.7,0.6,1.3,1.2,2.1,1.9c0.5-0.7,0.9-1.2,1.2-1.8c1.2,1.4,2.6,0.6,3.8,0.8c0.2,0.7,0.4,1.3,0.7,2.1
	c2.6-1.7,2.7-4.6,4.1-6.7c0.9,0.6,1.7,1.1,2.4,1.6c0,0.2,0,0.4,0,0.5c0,0,0,0,0,0c0.1,1.4-0.1,2.2-1.4,2.4c-0.4,0.1-0.7,0.2-1.3,0.3
	c0.8,0.8,1.5,1.5,2.1,2.1c-0.1,0.1-0.2,0.2-0.3,0.3l0.3,0.3c-0.8,0.8-1.6,1.6-2.4,2.3c0.2,0.2,0.4,0.5,0.7,0.7
	c0.8-0.6,1.6-1.2,2.5-1.8c0.1-0.1,0.3,0.1,0.4,0.1v0.5c0,0,0,0,0,0v1.5c-0.5,0.2-0.9,0.3-1.2,0.4v1.2c1.5,0.2,1.8-1,2.2-1.8h3.6V68
	c-0.7,0.5-1.4,1.1-2.2,1.6c0.1,0.1,0.1,0.3,0.2,0.4c0.6-0.5,1.2-0.9,1.8-1.4v3.2c1-0.2,1.9-0.3,2.9-0.5c-1.2-1.7-1.9-3.7-1.9-5.9
	V42.7h14.8c-1.5,2.1-2.4,4.7-2.4,7.6c0,7.2,5.8,13.1,13.1,13.1s13-5.8,13-13.1c0-2.8-0.9-5.4-2.4-7.6h14.9v22.9
	c0,5.6-4.5,10.1-10.1,10.1H34.6c-1.8,0-3.4-0.5-4.9-1.3c0.2,0.5,0.5,1,0.7,1.4H33c-0.3,1.3-0.5,2.3-0.8,3.7c0,0,0.1,0,0.2,0
	c1.4,0.3,2.9,0.7,4.4,1.1v0.5c0,0,0,0,0,0v4.6c-0.4,1.3-2,2.2-2.1,3.6c0,0,0,0,0,0c0,0.2,0.1,0.3,0.2,0.5c0.8,1,1.7,1.9,2.5,2.9
	c0,0.1-0.1,0.2-0.2,0.3c0.1,0.1,0.1,0.2,0.2,0.2c-0.3,0.6-0.6,1.3-1,2c-1,0.1-2.2-0.4-3,1.2c0,0.2,0,0.4,0,0.6v0c0,0.2,0,0.3,0,0.5
	c0,0,0,0,0,0c0,0.1,0,0.2,0,0.3c1,0,1.8,0,2.6,0c0-0.6,0-1.2,0-1.9c0.4,0.7,0.5,1,0.4,1.3c0.2,0.5,0,0.6-0.4,1.2c0,0.1,0,0.3,0,0.4
	c0.1,0.3,0.4,0.5,1.2,0.2v-2.1c1.2-1.1,2.3-2,3.4-3c0-0.4,0-0.8,0.1-1.3c0.5,0,0.8,0,1.3,0.1c-0.1,0.2-0.2,0.4-0.3,0.5
	c0.1,0,0.2,0,0.4,0c-0.4,0.6-0.7,1.1-1,1.5c-0.1-0.1-0.2-0.1-0.2-0.2c0.1,0.3,0.1,0.7,0.2,1.3c0.8-1,1.3-1.5,1.6-2.1
	c0.5-1.4,1.4-2.3,2.4-3.3c0,0,0,0,0,0c-0.4-0.3-0.8-0.5-1.1-0.8c-0.5,0.3-0.7,0.5-1.2,0.9v-0.6c0,0,0,0,0,0v-3.1
	c-1.2-1.6-3.6-1.8-3.8-4.1c0,0,0,0,0.1,0c-0.1-0.2-0.1-0.3-0.1-0.5c0.4-0.1,0.8-0.3,1.2-0.4v2H57c0.3,0.3,0.6,0.5,0.9,0.8
	c-0.1,0.1-0.2,0.2-0.2,0.3c0.1,0.1,0.2,0.2,0.3,0.3c-0.4,0.5-0.8,1-1.2,1.3c0.2,0.7,0.4,1.3,0.6,2c1.7-0.8,1.9-0.9,5.5-0.6
	c0.4,0.6,0.8,1.3,1.3,2c0.8-0.3,1.4-0.6,1.9-0.7c1.7,0.6,3.2,1.1,4.8,1.6c0,1.1,1.1,1.5,1.9,2.5c0.1-1.3,0.2-2.1,0.2-3
	c0.5,0.4,0.8,0.6,1.4,1.1c0.5-0.7,0.8-1.3,1.1-1.9c0.4-0.6,0.7-1.2,1.1-2.1c-0.3-0.2-0.8-0.5-1.1-0.7v-0.5c0,0,0,0,0,0
	c0-1.4,0-2.6,0-3.8c0-0.2,0.4-0.3,0.6-0.5c-0.2-1.2,0.5-1.7,1.5-2c0.3,0.3,0.5,0.5,0.8,0.7c0,0,0.1-0.1,0.4-0.3c0,0,0,0,0,0
	c-0.1-2-1.9-3.2-2.7-4.8c0.5-1.5,0.9-2.8,1.3-4.1c1.1,0,1.8,0,2.4-0.2c0,0,0,0,0,0v0c0.2-0.3,0.5-0.6,0.9-0.9
	c0.1-0.1,0.3-0.2,0.5-0.3c0,0.3,0,0.6,0.1,0.9c0,0.1,0,0.2,0,0.3c0,0,0,0.1,0,0.1c0,0.2,0,0.4,0,0.5c-0.2,0-0.4,0-0.6,0
	c-0.3,0-0.5,0-0.7,0.1c-0.1-0.1-0.1-0.2-0.2-0.2c0,0.5-0.2,0.9-0.4,1.3c0.4,0.9,1.2,1.1,2.2,1c0.5-0.5,1-1,1.8-1.7
	c1.2,1,3,1,3.3,2.9c1.2,0.3,2.4,0.6,3.7,0.9v-1.7c-1.3-1.3-2.8-2.8-4.3-4.3c0.1,0,0.2-0.1,0.4-0.2c-0.1-0.1-0.3-0.3-0.4-0.4
	c0.3-0.1,0.6-0.2,1.1-0.4v-1c-2.1-1.3-4.2-2.7-5-5.2c0,0,0.1-0.1,0.1-0.1c-0.1-0.1-0.1-0.3-0.2-0.4c0.4-0.3,0.8-0.7,1.1-0.9
	c0.6,0.4,1.1,0.6,1.2,0.7c2.2-0.4,1.2-2.1,1.7-3.2c1.5,0.4,2.8,0.8,4.2,1.2c-0.1-0.2-0.2-0.4-0.4-0.7h0.2c-0.1-0.2-0.2-0.3-0.3-0.5
	h0.9c-1.9-2-4.9-2.4-6.8-4.3v-0.5c0,0,0,0,0,0v-2.1c0.7-0.9,1.4-1.3,2.7-0.7c0,0.1-0.1,0.3-0.2,0.4c0.1,0,0.1,0.1,0.2,0.1
	c-0.2,0.5-0.4,1.1-0.6,1.6h2.4c0-0.4,0-0.6,0-0.9c-0.1-0.4-0.2-0.7-0.6-1.4c0.1,0,0.1-0.1,0.2-0.2c-0.1-0.1-0.1-0.2-0.2-0.4
	c0.4-0.4,0.6-0.7,0.7-1.1c-0.1-0.4-0.3-0.7-0.6-1c0.1-0.1,0.2-0.1,0.3-0.2c-0.1-0.1-0.2-0.3-0.3-0.4c1.8-1,3.6-1.9,5.5-3
	c0.2,0.4,0.3,0.7,0.5,1.2c0.5,0.3,1.3,0.6,2,1c0.4-0.4,0.7-0.8,1.1-1.3C96.1,45.4,95,44.6,93.9,43.9z M38.1,9.5h0.7v0.2h-0.7V9.5z
	 M38.8,10.3h-0.7V10h0.7V10.3z M12.2,59.3c0.1,0.1,0.1,0.1,0.2,0.2c-0.2,0.1-0.3,0.3-0.5,0.5c0,0-0.1-0.1-0.1-0.1
	C11.9,59.7,12,59.5,12.2,59.3z M11.9,60.5C11.8,60.5,11.8,60.4,11.9,60.5c0-0.3,0.2-0.5,0.3-0.7l0.2,0.2
	C12.2,60.2,12.1,60.4,11.9,60.5z M18.4,32.2c0.2,0.1,0.4,0.3,0.6,0.4l-0.2,0.2C18.6,32.7,18.5,32.5,18.4,32.2
	C18.3,32.3,18.4,32.3,18.4,32.2z M18.8,33.4c-0.2-0.2-0.3-0.4-0.5-0.5c0,0,0.1-0.1,0.1-0.1c0.2,0.1,0.4,0.3,0.6,0.4L18.8,33.4z
	 M50,60.3c-5.5,0-10.1-4.5-10.1-10.1c0-3,1.3-5.7,3.4-7.6c0.7-0.6,1.6-1.2,2.5-1.6c1.3-0.6,2.7-0.9,4.2-0.9s2.9,0.3,4.2,0.9
	c0.9,0.4,1.7,1,2.5,1.6c2.1,1.8,3.4,4.5,3.4,7.6C60,55.8,55.5,60.3,50,60.3z M75.5,41.1H59.3c-2.4-2.4-5.7-3.9-9.3-3.9
	s-6.9,1.5-9.3,3.9H24.5v-6.6c0-3.4,1.7-6.4,4.3-8.2v10.9h2.1v-12c0.5-0.2,1-0.3,1.5-0.5v12.4h2.1V24.4h1.4v12.7h2.1V24.4h27.6
	c5.6,0,10.1,4.5,10.1,10.1V41.1z M82.8,69.7c-0.1,0-0.2,0-0.3,0c0.1,0.1,0.2,0.3,0.4,0.5c-0.4,0-0.8,0-1.2,0.1c0-0.2,0-0.4,0-0.5
	c0-0.2,0-0.5,0-0.7c0,0,0,0,0,0l0,0v0c0-0.1,0-0.1,0-0.2c0,0,0,0,0,0c-0.1-0.1-0.2-0.3-0.3-0.4c-0.1,0.1-0.1,0.1-0.2,0.2v-0.5
	c0,0,0,0,0,0l0.2-0.2c0.1,0.1,0.2,0.2,0.3,0.4c0.1,0,0.2,0,0.4-0.1c-0.1,0.1-0.2,0.2-0.3,0.2c0,0,0,0,0,0c0,0-0.1,0.1-0.1,0.1
	c0,0,0,0,0,0C82.1,68.6,82.4,69.1,82.8,69.7z M69.3,28.6h-5.5c-0.9,0-1.6,0.7-1.6,1.6v5.6c0,0.9,0.7,1.6,1.6,1.6h5.5
	c0.9,0,1.6-0.7,1.6-1.6v-5.6C70.9,29.3,70.2,28.6,69.3,28.6z M50,42.8c-4.1,0-7.4,3.3-7.4,7.4c0,4.1,3.3,7.4,7.4,7.4
	c4.1,0,7.4-3.3,7.4-7.4C57.4,46.1,54.1,42.8,50,42.8z M69.3,28.6h-5.5c-0.9,0-1.6,0.7-1.6,1.6v5.6c0,0.9,0.7,1.6,1.6,1.6h5.5
	c0.9,0,1.6-0.7,1.6-1.6v-5.6C70.9,29.3,70.2,28.6,69.3,28.6z M69.3,28.6h-5.5c-0.9,0-1.6,0.7-1.6,1.6v5.6c0,0.9,0.7,1.6,1.6,1.6h5.5
	c0.9,0,1.6-0.7,1.6-1.6v-5.6C70.9,29.3,70.2,28.6,69.3,28.6z"/>
</svg>
